<svg width="67" height="63" viewBox="0 0 67 63" fill="none" xmlns="http://www.w3.org/2000/svg">
<path d="M41.8568 8.55332C41.691 8.55332 41.5256 8.55477 41.3606 8.55778C37.2497 8.63195 33.2881 7.14668 30.0926 4.57552C27.2589 2.29561 23.6429 0.938208 19.7069 0.963733C10.7252 1.02201 3.32295 8.5579 3.47161 17.4827C3.51159 19.8859 4.07688 22.162 5.05822 24.2027C6.73025 27.6797 6.3697 31.8162 4.04635 34.9016C3.08683 36.1759 2.30152 37.6124 1.73707 39.1885C-1.27067 47.5873 3.17248 56.9231 11.6172 59.9302C20.2168 62.9925 29.6475 58.4659 32.5996 49.9061C32.8183 49.2721 32.9951 48.6338 33.1318 47.9944C33.9995 43.9334 37.5643 41.0261 41.7417 41.0434C41.7802 41.0435 41.8186 41.0436 41.857 41.0436C53.4379 41.0436 62.826 33.7705 62.826 24.7985C62.826 15.8266 53.4377 8.55332 41.8568 8.55332Z" fill="url(#paint0_linear_73_8588)"/>
<path d="M24.7581 8.59309H24.3946V8.23189C24.3946 7.89946 24.1234 7.62988 23.7888 7.62988C23.4543 7.62988 23.1831 7.89946 23.1831 8.23189V8.59309H22.8196C22.4851 8.59309 22.2139 8.86267 22.2139 9.19509C22.2139 9.52752 22.4851 9.7971 22.8196 9.7971H23.1831V10.1583C23.1831 10.4907 23.4543 10.7603 23.7888 10.7603C24.1234 10.7603 24.3946 10.4907 24.3946 10.1583V9.7971H24.7581C25.0926 9.7971 25.3638 9.52752 25.3638 9.19509C25.3638 8.86267 25.0927 8.59309 24.7581 8.59309Z" fill="#C4E2FF"/>
<path d="M40.3284 49.1331H39.9649V48.7719C39.9649 48.4395 39.6937 48.1699 39.3592 48.1699C39.0247 48.1699 38.7534 48.4395 38.7534 48.7719V49.1331H38.3899C38.0554 49.1331 37.7842 49.4027 37.7842 49.7351C37.7842 50.0676 38.0554 50.3371 38.3899 50.3371H38.7534V50.6983C38.7534 51.0308 39.0247 51.3003 39.3592 51.3003C39.6937 51.3003 39.9649 51.0308 39.9649 50.6983V50.3371H40.3284C40.6629 50.3371 40.9341 50.0676 40.9341 49.7351C40.9341 49.4027 40.6629 49.1331 40.3284 49.1331Z" fill="#81C2FF"/>
<path d="M12.3635 49.1331H12.0001V48.7719C12.0001 48.4395 11.7288 48.1699 11.3943 48.1699C11.0598 48.1699 10.7886 48.4395 10.7886 48.7719V49.1331H10.4251C10.0906 49.1331 9.81934 49.4027 9.81934 49.7351C9.81934 50.0676 10.0906 50.3371 10.4251 50.3371H10.7886V50.6983C10.7886 51.0308 11.0598 51.3003 11.3943 51.3003C11.7288 51.3003 12.0001 51.0308 12.0001 50.6983V50.3371H12.3635C12.698 50.3371 12.9693 50.0676 12.9693 49.7351C12.9693 49.4027 12.698 49.1331 12.3635 49.1331Z" fill="#81C2FF"/>
<path d="M45.383 53.0274C45.228 53.0274 45.073 52.9687 44.9546 52.8512L44.4138 52.3137L43.873 52.8512C43.6364 53.0862 43.2529 53.0862 43.0163 52.8512C42.7797 52.616 42.7797 52.2348 43.0163 51.9998L43.9855 51.0366C44.2222 50.8016 44.6056 50.8016 44.8422 51.0366L45.8114 51.9998C46.048 52.235 46.048 52.6162 45.8114 52.8512C45.6932 52.9687 45.5381 53.0274 45.383 53.0274Z" fill="#81C2FF"/>
<path d="M19.0783 7.69664C18.9233 7.69664 18.7683 7.63788 18.65 7.52037L18.1091 6.9829L17.5683 7.52037C17.3317 7.75539 16.9482 7.75539 16.7116 7.52037C16.475 7.28523 16.475 6.90404 16.7116 6.66902L17.6809 5.70581C17.9175 5.47079 18.3009 5.47079 18.5375 5.70581L19.5067 6.66902C19.7434 6.90416 19.7434 7.28535 19.5067 7.52037C19.3885 7.63788 19.2334 7.69664 19.0783 7.69664Z" fill="#BCDFFF"/>
<path d="M26.7373 42.3042H36.1097V54.2311H26.7373V42.3042Z" fill="white"/>
<path opacity="0.1" d="M55.1958 6.77026C52.5387 6.77026 50.3446 8.73485 50.0006 11.2819H34.9391C34.2703 11.2819 33.7275 11.8213 33.7275 12.4859V17.6948H30.4636C30.3203 17.1887 29.8532 16.8168 29.2982 16.8168H13.3421C12.6038 14.8275 10.6794 13.4089 8.42121 13.4089C5.52531 13.4089 3.17773 15.7419 3.17773 18.6199C3.17773 20.7891 4.51174 22.6481 6.40875 23.4326V35.4044C6.40875 36.069 6.9503 36.6084 7.62028 36.6084H7.66704V44.7784C7.66704 45.7758 8.4807 46.5844 9.48433 46.5844H22.9905V47.9304C22.9905 48.5954 23.5329 49.1344 24.2021 49.1344H26.7322V55.8769H21.9645C21.2823 55.8769 20.7292 56.4265 20.7292 57.1045C20.7292 57.7825 21.2823 58.3322 21.9645 58.3322H40.8722C41.5544 58.3322 42.1074 57.7826 42.1074 57.1045C42.1074 56.4264 41.5544 55.8769 40.8722 55.8769H36.1046V49.1344H38.6346C39.3037 49.1344 39.8461 48.5954 39.8461 47.9304V46.5844H53.3523C54.3559 46.5844 55.1696 45.7758 55.1696 44.7784V26.2948H55.93C56.5987 26.2948 57.1415 25.7554 57.1415 25.0908V16.8201C59.0736 16.0521 60.4393 14.1758 60.4393 11.9813C60.4393 9.10327 58.0917 6.77026 55.1958 6.77026Z" fill="#3A85F4"/>
<path d="M38.635 45.8837H24.2027C23.5336 45.8837 22.9912 45.3447 22.9912 44.6797V41.9529H39.8466V44.6797C39.8466 45.3447 39.3042 45.8837 38.635 45.8837Z" fill="white"/>
<path d="M53.3522 43.3343H9.48428C8.48065 43.3343 7.66699 42.5257 7.66699 41.5283V16.2508C7.66699 15.2534 8.48065 14.4448 9.48428 14.4448H53.3522C54.3558 14.4448 55.1694 15.2534 55.1694 16.2508V41.5283C55.1694 42.5257 54.3558 43.3343 53.3522 43.3343Z" fill="#81C2FF"/>
<path d="M55.1714 16.2499V38.4699H7.66992V16.2499C7.66992 15.2529 8.48286 14.4438 9.48721 14.4438H53.3541C54.3585 14.4438 55.1714 15.2529 55.1714 16.2499Z" fill="white"/>
<path d="M40.8724 55.0817H21.9648C21.2826 55.0817 20.7295 54.532 20.7295 53.8541C20.7295 53.1761 21.2826 52.6265 21.9648 52.6265H40.8724C41.5546 52.6265 42.1077 53.1761 42.1077 53.8541C42.1078 54.532 41.5548 55.0817 40.8724 55.0817Z" fill="white"/>
<path d="M30.5101 14.7702V32.1537C30.5101 32.8183 29.9673 33.3577 29.2985 33.3577H23.6346L22.6158 36.3364C22.2935 37.2791 20.9535 37.2791 20.6313 36.3364L19.6112 33.3577H7.6207C6.95073 33.3577 6.40918 32.8183 6.40918 32.1537V14.7702C6.40918 14.1056 6.95073 13.5662 7.6207 13.5662H29.2985C29.9673 13.5662 30.5101 14.1056 30.5101 14.7702Z" fill="white"/>
<path d="M10.7415 30.0331H27.0542C27.3888 30.0331 27.66 29.7635 27.66 29.4311C27.66 29.0987 27.3888 28.8291 27.0542 28.8291H10.7415C10.4069 28.8291 10.1357 29.0987 10.1357 29.4311C10.1357 29.7635 10.4069 30.0331 10.7415 30.0331Z" fill="#5A5A5A"/>
<path d="M10.7415 23.7226H27.0542C27.3888 23.7226 27.66 23.453 27.66 23.1206C27.66 22.7881 27.3888 22.5186 27.0542 22.5186H10.7415C10.4069 22.5186 10.1357 22.7881 10.1357 23.1206C10.1357 23.453 10.4069 23.7226 10.7415 23.7226Z" fill="#5A5A5A"/>
<path d="M10.7415 25.83H27.0542C27.3888 25.83 27.66 25.5604 27.66 25.228C27.66 24.8956 27.3888 24.626 27.0542 24.626H10.7415C10.4069 24.626 10.1357 24.8956 10.1357 25.228C10.1357 25.5604 10.4069 25.83 10.7415 25.83Z" fill="#5A5A5A"/>
<path d="M21.054 19.5077H27.0535C27.3881 19.5077 27.6592 19.2381 27.6592 18.9057C27.6592 18.5733 27.3881 18.3037 27.0535 18.3037H21.054C20.7194 18.3037 20.4482 18.5733 20.4482 18.9057C20.4482 19.2381 20.7194 19.5077 21.054 19.5077Z" fill="#5A5A5A"/>
<path d="M27.6605 21.0129C27.6605 21.3452 27.3891 21.6149 27.0547 21.6149H10.7415C10.4071 21.6149 10.1357 21.3452 10.1357 21.0129C10.1357 20.6806 10.4071 20.4109 10.7415 20.4109H27.0547C27.3891 20.4109 27.6605 20.6806 27.6605 21.0129Z" fill="#5A5A5A"/>
<path d="M57.1434 9.2355V21.8403C57.1434 22.5049 56.6007 23.0443 55.9319 23.0443H43.4011L42.381 26.023C42.0587 26.9645 40.7188 26.9645 40.3965 26.023L39.3776 23.0443H34.941C34.2723 23.0443 33.7295 22.5049 33.7295 21.8403V9.2355C33.7295 8.57089 34.2723 8.03149 34.941 8.03149H55.9319C56.6007 8.03149 57.1434 8.57089 57.1434 9.2355Z" fill="white"/>
<path d="M8.42121 20.5801C11.3171 20.5801 13.6647 18.2471 13.6647 15.3692C13.6647 12.4912 11.3171 10.1582 8.42121 10.1582C5.52532 10.1582 3.17773 12.4912 3.17773 15.3692C3.17773 18.2471 5.52532 20.5801 8.42121 20.5801Z" fill="#D4EBFF"/>
<path d="M51.5306 30.5546C51.8651 30.5546 52.1363 30.2851 52.1363 29.9526C52.1363 29.6201 51.8651 29.3506 51.5306 29.3506C51.196 29.3506 50.9248 29.6201 50.9248 29.9526C50.9248 30.2851 51.196 30.5546 51.5306 30.5546Z" fill="#5A5A5A"/>
<path d="M49.5618 30.5548C49.8964 30.5548 50.1676 30.2853 50.1676 29.9528C50.1676 29.6204 49.8964 29.3508 49.5618 29.3508C49.2273 29.3508 48.9561 29.6204 48.9561 29.9528C48.9561 30.2853 49.2273 30.5548 49.5618 30.5548Z" fill="#5A5A5A"/>
<path d="M45.7229 32.7279H51.7224C52.057 32.7279 52.3282 32.4584 52.3282 32.1259C52.3282 31.7935 52.057 31.5239 51.7224 31.5239H45.7229C45.3883 31.5239 45.1172 31.7935 45.1172 32.1259C45.1172 32.4584 45.3883 32.7279 45.7229 32.7279Z" fill="#5A5A5A"/>
<path d="M42.4524 34.8354H51.723C52.0577 34.8354 52.3288 34.5658 52.3288 34.2334C52.3288 33.9009 52.0577 33.6313 51.723 33.6313H42.4524C42.1178 33.6313 41.8467 33.9009 41.8467 34.2334C41.8467 34.5658 42.1178 34.8354 42.4524 34.8354Z" fill="#5A5A5A"/>
<path d="M55.1956 13.9414C58.0915 13.9414 60.4391 11.6084 60.4391 8.73048C60.4391 5.85255 58.0915 3.51953 55.1956 3.51953C52.2997 3.51953 49.9521 5.85255 49.9521 8.73048C49.9521 11.6084 52.2997 13.9414 55.1956 13.9414Z" fill="#D5EBFF"/>
<path d="M61.0462 8.73044C61.0462 5.52512 58.4222 2.91748 55.1969 2.91748C52.4219 2.91748 50.0939 4.84847 49.4973 7.4289H34.9405C33.9384 7.4289 33.1232 8.23908 33.1232 9.23492V13.8421H30.8548C30.5366 13.3174 29.9592 12.9645 29.299 12.9645H13.7457C12.8235 10.9562 10.7851 9.55615 8.42248 9.55615C5.19716 9.55615 2.57324 12.1638 2.57324 15.3691C2.57324 17.6393 3.89017 19.6082 5.80402 20.5648V32.1537C5.80402 32.9558 6.33321 33.6366 7.06255 33.8715V41.5275C7.06255 42.8553 8.14953 43.9356 9.4856 43.9356H22.386V44.6795C22.386 45.6753 23.2013 46.4855 24.2033 46.4855H26.1277V52.024H21.9658C20.9506 52.024 20.1247 52.8447 20.1247 53.8536C20.1247 54.8624 20.9506 55.6832 21.9658 55.6832H40.8734C41.8886 55.6832 42.7146 54.8624 42.7146 53.8536C42.7146 52.8447 41.8887 52.024 40.8734 52.024H36.7115V46.4855H38.6357C39.6378 46.4855 40.453 45.6753 40.453 44.6795V43.9356H53.3535C54.6895 43.9356 55.7765 42.8553 55.7765 41.5275V23.6462H55.9312C56.9333 23.6462 57.7485 22.836 57.7485 21.8402V13.9602C59.6988 13.0165 61.0462 11.0271 61.0462 8.73044ZM3.78489 15.3691C3.78489 12.8278 5.86532 10.7602 8.42261 10.7602C10.9799 10.7602 13.0603 12.8277 13.0603 15.3691C13.0603 17.9105 10.9799 19.9781 8.42261 19.9781C5.86532 19.9781 3.78489 17.9105 3.78489 15.3691ZM7.01554 21.011C7.46647 21.1221 7.93751 21.1821 8.42248 21.1821C11.6478 21.1821 14.2717 18.5744 14.2717 15.3691C14.2717 14.9576 14.2277 14.556 14.1456 14.1685H29.299C29.633 14.1685 29.9048 14.4385 29.9048 14.7705V32.1537C29.9048 32.4857 29.633 32.7557 29.299 32.7557H23.636C23.3766 32.7557 23.146 32.9198 23.0624 33.1639L22.0432 36.1427C21.9486 36.4194 21.6986 36.441 21.6242 36.441C21.55 36.441 21.3 36.4194 21.2053 36.1427L20.186 33.1639C20.1026 32.9198 19.8719 32.7557 19.6125 32.7557H7.62142C7.28741 32.7557 7.01566 32.4857 7.01566 32.1537L7.01554 21.011ZM36.1057 53.2281H40.8734C41.2206 53.2281 41.5031 53.5087 41.5031 53.8537C41.5031 54.1986 41.2206 54.4793 40.8734 54.4793H21.9658C21.6187 54.4793 21.3362 54.1986 21.3362 53.8537C21.3362 53.5087 21.6187 53.2281 21.9658 53.2281H32.3984C32.7329 53.2281 33.0042 52.9585 33.0042 52.6261C33.0042 52.2937 32.7329 52.0241 32.3984 52.0241H27.3392V46.4856H35.5001V52.6261C35.4999 52.9585 35.7712 53.2281 36.1057 53.2281ZM39.2415 44.6796C39.2415 45.0116 38.9698 45.2816 38.6357 45.2816H24.2034C23.8694 45.2816 23.5977 45.0116 23.5977 44.6796V43.9357H39.2415V44.6796ZM56.5371 21.8402C56.5371 22.1721 56.2654 22.4422 55.9313 22.4422H43.3999C43.1406 22.4422 42.91 22.6063 42.8264 22.8503L41.8071 25.8292C41.7125 26.1059 41.4626 26.1274 41.3882 26.1274C41.3138 26.1274 41.0639 26.1059 40.9693 25.8292L39.95 22.8503C39.8665 22.6063 39.6358 22.4422 39.3765 22.4422H34.9405C34.6064 22.4422 34.3347 22.1721 34.3347 21.8402V14.5622C34.3347 14.2297 34.0634 13.9602 33.7289 13.9602C33.3944 13.9602 33.1232 14.2297 33.1232 14.5622V21.8402C33.1232 22.836 33.9384 23.6462 34.9405 23.6462H38.9426L39.8222 26.2169C40.0539 26.894 40.6686 27.3314 41.3882 27.3314C42.1077 27.3314 42.7225 26.894 42.9541 26.2169L43.8337 23.6462H54.565V41.5276C54.565 42.1915 54.0215 42.7317 53.3535 42.7317H9.4856C8.81756 42.7317 8.27407 42.1915 8.27407 41.5276V33.9599H19.1788L20.0583 36.5305C20.2901 37.2077 20.9047 37.6451 21.6242 37.6451C22.3439 37.6451 22.9585 37.2077 23.1902 36.5305L24.0698 33.9599H29.299C30.301 33.9599 31.1163 33.1497 31.1163 32.1538V15.0461H33.7287C33.9582 15.0461 34.168 14.9169 34.2707 14.7129C34.3128 14.6294 34.3347 14.5373 34.3347 14.4437V9.23504C34.3347 8.90309 34.6064 8.63303 34.9405 8.63303H49.3502C49.3496 8.66554 49.3477 8.69781 49.3477 8.73056C49.3477 11.9359 51.9716 14.5435 55.1969 14.5435C55.6581 14.5435 56.1064 14.4885 56.5371 14.3877V21.8402ZM55.197 13.3394C52.6399 13.3394 50.5593 11.2719 50.5593 8.73044C50.5593 6.18901 52.6398 4.12149 55.197 4.12149C57.7543 4.12149 59.8348 6.18901 59.8348 8.73044C59.8348 11.2719 57.7542 13.3394 55.197 13.3394Z" fill="#3A85F4"/>
<path d="M53.5855 17.2582H37.2728C36.9381 17.2582 36.667 16.9886 36.667 16.6562C36.667 16.3238 36.9381 16.0542 37.2728 16.0542H53.5855C53.9201 16.0542 54.1912 16.3238 54.1912 16.6562C54.1912 16.9886 53.92 17.2582 53.5855 17.2582Z" fill="#5A5A5A"/>
<path d="M53.5855 19.3656H37.2728C36.9381 19.3656 36.667 19.0961 36.667 18.7636C36.667 18.4312 36.9381 18.1616 37.2728 18.1616H53.5855C53.9201 18.1616 54.1912 18.4312 54.1912 18.7636C54.1912 19.0961 53.92 19.3656 53.5855 19.3656Z" fill="#5A5A5A"/>
<path d="M54.1917 14.5488C54.1917 14.8811 53.9203 15.1508 53.5859 15.1508H37.2728C36.9384 15.1508 36.667 14.8811 36.667 14.5488C36.667 14.2165 36.9384 13.9468 37.2728 13.9468H53.5859C53.9203 13.9468 54.1917 14.2165 54.1917 14.5488Z" fill="#5A5A5A"/>
<path d="M43.2722 13.0434H37.2728C36.9381 13.0434 36.667 12.7738 36.667 12.4414C36.667 12.1089 36.9381 11.8394 37.2728 11.8394H43.2722C43.6069 11.8394 43.878 12.1089 43.878 12.4414C43.878 12.7738 43.6069 13.0434 43.2722 13.0434Z" fill="#5A5A5A"/>
<path d="M53.999 51.4226L55.3177 50.1089L59.3195 54.0957L58.0009 55.4094L53.999 51.4226Z" fill="white"/>
<path d="M55.272 51.378C52.27 54.3688 47.3854 54.3688 44.3834 51.378C41.3813 48.3873 41.3814 43.5209 44.3834 40.5302C47.3853 37.5394 52.27 37.5394 55.272 40.5302C58.274 43.5209 58.274 48.3872 55.272 51.378Z" fill="#81C2FF"/>
<path d="M49.8209 51.7232C53.019 51.7232 55.6115 49.1403 55.6115 45.9542C55.6115 42.7681 53.019 40.1853 49.8209 40.1853C46.6228 40.1853 44.0303 42.7681 44.0303 45.9542C44.0303 49.1403 46.6228 51.7232 49.8209 51.7232Z" fill="white" fill-opacity="0.86"/>
<path d="M53.412 41.4207L45.2786 49.5236C44.957 49.1179 44.6987 48.6784 44.5029 48.2189L52.1023 40.6479C52.5636 40.8429 53.0047 41.1003 53.412 41.4207Z" fill="white"/>
<path d="M55.5681 45.1888L49.0617 51.6709C47.8924 51.5167 46.7613 51.007 45.8467 50.1425L54.034 41.9858C54.9018 42.897 55.4135 44.0239 55.5681 45.1888Z" fill="white"/>
<path d="M65.6107 60.4282L64.3515 61.6826C64.1031 61.9301 63.7005 61.9301 63.4521 61.6826L57.4861 55.7389C57.2377 55.4915 57.2377 55.0903 57.4861 54.8429L58.7453 53.5884C58.9937 53.341 59.3963 53.341 59.6447 53.5884L65.6107 59.5321C65.859 59.7796 65.859 60.1808 65.6107 60.4282Z" fill="white"/>
<path d="M62.4561 60.6915L63.4508 61.6825C63.6992 61.93 64.1019 61.93 64.3502 61.6825L65.6094 60.4281C65.8578 60.1806 65.8578 59.7794 65.6094 59.532L64.6146 58.541L62.4561 60.6915Z" fill="#81C2FF"/>
<path d="M58.3623 56.6109L60.5206 54.4607L61.9451 55.8798L59.7868 58.03L58.3623 56.6109Z" fill="#81C2FF"/>
<path d="M49.3833 48.0521C49.1846 48.0521 49.0236 47.8915 49.0236 47.6936V47.2623C49.0236 46.9841 49.0968 46.7094 49.2353 46.4678C49.4475 46.0979 49.805 45.8237 50.2163 45.7153C50.8444 45.5499 51.2832 44.9817 51.2832 44.3334C51.2832 43.9441 51.1288 43.5802 50.8488 43.3088C50.5688 43.0374 50.1993 42.8942 49.8077 42.9047C49.0561 42.9254 48.431 43.5516 48.4143 44.3007C48.4108 44.4571 48.4324 44.6111 48.4783 44.7584C48.5373 44.9475 48.4314 45.1483 48.2416 45.2071C48.052 45.2659 47.8502 45.1604 47.7912 44.9713C47.7221 44.7498 47.6897 44.5188 47.6949 44.2848C47.7204 43.1407 48.6397 42.2198 49.7877 42.1881C50.376 42.1723 50.93 42.3874 51.3505 42.7948C51.7711 43.2024 52.0027 43.7489 52.0027 44.3333C52.0027 45.3066 51.3438 46.1599 50.4002 46.4083C50.174 46.4679 49.9772 46.6192 49.8601 46.8233C49.7836 46.9568 49.7431 47.1086 49.7431 47.2623V47.6935C49.7431 47.8915 49.5821 48.0521 49.3833 48.0521Z" fill="#5A5A5A"/>
<path d="M49.3857 49.4276C49.1872 49.4276 49.0264 49.2671 49.0264 49.0693V49.0617C49.0264 48.8638 49.1872 48.7034 49.3857 48.7034C49.5843 48.7034 49.7451 48.8638 49.7451 49.0617V49.0693C49.7451 49.2672 49.5843 49.4276 49.3857 49.4276Z" fill="#5A5A5A"/>
<path fill-rule="evenodd" clip-rule="evenodd" d="M65.8621 59.2787L60.0847 53.5229C59.718 53.1576 59.4522 53.0622 59.3651 53.0601C59.3084 53.0502 59.2507 53.0444 59.192 53.0444C59.0669 53.0444 58.9457 53.068 58.8325 53.1116L56.3594 50.6477C58.6301 47.5115 58.3502 43.0975 55.5191 40.2769C52.3767 37.1463 47.2637 37.1463 44.1216 40.2769C42.6017 41.791 41.7646 43.8073 41.7646 45.9542C41.7646 48.1011 42.6017 50.1175 44.1216 51.6316C45.6927 53.1968 47.7565 53.9795 49.8203 53.9795C51.4755 53.9795 53.1304 53.4756 54.5314 52.4688L57.0045 54.9327C56.9607 55.0455 56.937 55.1663 56.937 55.2909C56.937 55.5559 57.0406 55.805 57.2288 55.9924L59.3651 58.1208L63.1947 61.936C63.3828 62.1234 63.6329 62.2266 63.8989 62.2266C64.1649 62.2266 64.4149 62.1235 64.6029 61.9361L65.8621 60.6816C66.2503 60.2949 66.2503 59.6655 65.8621 59.2787ZM42.4841 45.9542C42.4841 47.9097 43.2464 49.7459 44.6303 51.1247C47.4922 53.9757 52.1484 53.9756 55.0102 51.1248C57.8718 48.2738 57.8718 43.6349 55.0102 40.7838C53.5792 39.3583 51.6997 38.6455 49.8202 38.6455C47.9407 38.6455 46.0611 39.3582 44.6303 40.7838C43.2464 42.1625 42.4841 43.9987 42.4841 45.9542ZM55.9095 51.2135C55.7851 51.3563 55.6551 51.4959 55.5189 51.6316C55.3827 51.7673 55.2425 51.8968 55.0992 52.0208L57.4531 54.3659L58.2634 53.5586L55.9095 51.2135ZM64.0941 61.4293L65.3533 60.1747C65.461 60.0674 65.461 59.8928 65.3532 59.7857L59.3873 53.842C59.335 53.79 59.2657 53.7614 59.1919 53.7614C59.1181 53.7614 59.0489 53.79 58.9967 53.842L57.7374 55.0964C57.6853 55.1484 57.6566 55.2175 57.6566 55.291C57.6566 55.3645 57.6853 55.4336 57.7374 55.4856L63.7035 61.4293C63.8077 61.5331 63.9897 61.5332 64.0941 61.4293Z" fill="#3A85F4"/>
<ellipse cx="55.3181" cy="8.31756" rx="1.85426" ry="1.8493" fill="#3A85F4"/>
<path fill-rule="evenodd" clip-rule="evenodd" d="M52.3008 12.8405C52.3809 11.9771 52.7689 10.9216 53.9053 10.5032C54.3283 10.818 55.4802 11.2587 56.7032 10.5032C57.2309 10.6776 58.1484 11.338 58.3233 12.6951C57.4532 13.3209 56.3865 13.6916 55.2333 13.6974H55.178C54.1171 13.692 53.1295 13.3779 52.3008 12.8405Z" fill="#3A85F4"/>
<ellipse cx="8.32594" cy="14.6845" rx="1.85426" ry="1.8493" fill="#3A85F4"/>
<path fill-rule="evenodd" clip-rule="evenodd" d="M5.30859 19.2072C5.38876 18.3439 5.77681 17.2885 6.91307 16.8701C7.33613 17.1849 8.48798 17.6256 9.71095 16.8701C10.2387 17.0446 11.1561 17.7049 11.331 19.0618C10.454 19.6926 9.37725 20.0642 8.21343 20.0642C7.14207 20.0642 6.14447 19.7493 5.30859 19.2072Z" fill="#3A85F4"/>
<defs>
<linearGradient id="paint0_linear_73_8588" x1="47.9479" y1="53.6822" x2="3.48967" y2="2.27781" gradientUnits="userSpaceOnUse">
<stop stop-color="#5EB6FE" stop-opacity="0"/>
<stop offset="1" stop-color="#5FB6FE"/>
</linearGradient>
</defs>
</svg>
