<svg width="16" height="16" viewBox="0 0 16 16" fill="none" xmlns="http://www.w3.org/2000/svg">
<path d="M8 16C6.41775 16 4.87103 15.5308 3.55544 14.6518C2.23985 13.7727 1.21447 12.5233 0.608967 11.0615C0.00346625 9.59966 -0.15496 7.99113 0.153721 6.43928C0.462403 4.88743 1.22433 3.46197 2.34315 2.34315C3.46197 1.22433 4.88743 0.462403 6.43928 0.153721C7.99113 -0.15496 9.59966 0.00346625 11.0615 0.608967C12.5233 1.21447 13.7727 2.23985 14.6518 3.55544C15.5308 4.87103 16 6.41775 16 8C15.9976 10.121 15.154 12.1545 13.6542 13.6542C12.1544 15.154 10.121 15.9976 8 16ZM8 1C6.61553 1 5.26215 1.41055 4.11101 2.17972C2.95987 2.94889 2.06266 4.04214 1.53285 5.32122C1.00303 6.6003 0.86441 8.00777 1.13451 9.36563C1.4046 10.7235 2.07129 11.9708 3.05026 12.9497C4.02922 13.9287 5.2765 14.5954 6.63437 14.8655C7.99224 15.1356 9.3997 14.997 10.6788 14.4672C11.9579 13.9373 13.0511 13.0401 13.8203 11.889C14.5895 10.7379 15 9.38447 15 8C14.9979 6.14414 14.2597 4.36489 12.9474 3.05259C11.6351 1.7403 9.85587 1.00212 8 1Z" fill="#E0E0E0"/>
<path d="M8.00031 8.6256C7.53214 8.6257 7.07446 8.48696 6.68514 8.22693C6.29583 7.9669 5.99236 7.59726 5.81313 7.16476C5.63391 6.73226 5.58696 6.25632 5.67823 5.79713C5.76951 5.33794 5.9949 4.91614 6.32592 4.58506C6.65693 4.25398 7.07868 4.02849 7.53785 3.93712C7.99702 3.84575 8.47297 3.89259 8.90551 4.07173C9.33805 4.25087 9.70776 4.55425 9.96787 4.94352C10.228 5.33278 10.3668 5.79043 10.3668 6.2586C10.3668 6.39121 10.3141 6.51839 10.2204 6.61216C10.1266 6.70592 9.99942 6.7586 9.86681 6.7586C9.73421 6.7586 9.60703 6.70592 9.51326 6.61216C9.41949 6.51839 9.36681 6.39121 9.36681 6.2586C9.36672 5.98836 9.28649 5.72421 9.13627 5.49955C8.98606 5.2749 8.77261 5.09983 8.5229 4.99648C8.2732 4.89313 7.99846 4.86614 7.73342 4.91892C7.46837 4.9717 7.22493 5.10189 7.03388 5.29302C6.84282 5.48415 6.71272 5.72763 6.66004 5.9927C6.60735 6.25776 6.63444 6.53249 6.73788 6.78215C6.84132 7.03182 7.01647 7.24521 7.24118 7.39534C7.46589 7.54547 7.73007 7.6256 8.00031 7.6256C8.13292 7.6256 8.2601 7.67828 8.35387 7.77205C8.44764 7.86582 8.50031 7.99299 8.50031 8.1256C8.50031 8.25821 8.44764 8.38539 8.35387 8.47916C8.2601 8.57292 8.13292 8.6256 8.00031 8.6256Z" fill="#E0E0E0"/>
<path d="M7.99931 12.3595C7.37184 12.3587 6.77029 12.109 6.32664 11.6653C5.883 11.2216 5.63347 10.62 5.63281 9.99249C5.63281 9.85988 5.68549 9.7327 5.77926 9.63894C5.87303 9.54517 6.0002 9.49249 6.13281 9.49249C6.26542 9.49249 6.3926 9.54517 6.48637 9.63894C6.58013 9.7327 6.63281 9.85988 6.63281 9.99249C6.63291 10.2627 6.71314 10.5269 6.86335 10.7515C7.01357 10.9762 7.22702 11.1513 7.47672 11.2546C7.72643 11.358 8.00117 11.385 8.26621 11.3322C8.53125 11.2794 8.77469 11.1492 8.96575 10.9581C9.15681 10.7669 9.2869 10.5235 9.33959 10.2584C9.39228 9.99333 9.36519 9.7186 9.26175 9.46894C9.1583 9.21927 8.98316 9.00588 8.75845 8.85575C8.53374 8.70562 8.26956 8.62549 7.99931 8.62549C7.8667 8.62549 7.73953 8.57281 7.64576 8.47904C7.55199 8.38527 7.49931 8.2581 7.49931 8.12549C7.49931 7.99288 7.55199 7.8657 7.64576 7.77194C7.73953 7.67817 7.8667 7.62549 7.99931 7.62549C8.62708 7.62549 9.22914 7.87487 9.67303 8.31877C10.1169 8.76267 10.3663 9.36472 10.3663 9.99249C10.3663 10.6203 10.1169 11.2223 9.67303 11.6662C9.22914 12.1101 8.62708 12.3595 7.99931 12.3595Z" fill="#E0E0E0"/>
<path d="M8 12.9701C7.86739 12.9701 7.74021 12.9174 7.64645 12.8237C7.55268 12.7299 7.5 12.6027 7.5 12.4701V11.8601C7.5 11.7275 7.55268 11.6003 7.64645 11.5066C7.74021 11.4128 7.86739 11.3601 8 11.3601C8.13261 11.3601 8.25979 11.4128 8.35355 11.5066C8.44732 11.6003 8.5 11.7275 8.5 11.8601V12.4701C8.5 12.6027 8.44732 12.7299 8.35355 12.8237C8.25979 12.9174 8.13261 12.9701 8 12.9701Z" fill="#E0E0E0"/>
<path d="M8 4.89003C7.86739 4.89003 7.74021 4.83735 7.64645 4.74358C7.55268 4.64981 7.5 4.52264 7.5 4.39003V3.53003C7.5 3.39742 7.55268 3.27024 7.64645 3.17648C7.74021 3.08271 7.86739 3.03003 8 3.03003C8.13261 3.03003 8.25979 3.08271 8.35355 3.17648C8.44732 3.27024 8.5 3.39742 8.5 3.53003V4.39003C8.5 4.52264 8.44732 4.64981 8.35355 4.74358C8.25979 4.83735 8.13261 4.89003 8 4.89003Z" fill="#E0E0E0"/>
</svg>
