<svg width="64" height="58" viewBox="0 0 64 58" fill="none" xmlns="http://www.w3.org/2000/svg">
<path d="M62.0714 14.8542C59.3422 7.98231 50.9349 3.86131 43.8142 6.58843C35.6861 9.70125 38.3811 22.4941 30.9983 25.081C27.0102 26.4784 21.1147 21.2585 17.0854 20.458C9.66063 18.9831 2.93912 24.1671 1.28401 31.3459C-0.40455 38.6698 2.30371 48.452 10.4357 50.4398C20.1224 52.8077 25.1682 44.1911 33.2943 41.7169C41.6333 39.1779 50.9054 45.1744 57.8089 37.8785C62.9092 32.4884 64.774 21.6588 62.0714 14.8542Z" fill="url(#paint0_linear_73_8750)"/>
<path opacity="0.11" d="M41.6665 3.9873H16.5188C15.103 3.9873 13.9552 5.12304 13.9552 6.52404V14.823C11.9492 15.3902 10.4805 17.2128 10.4805 19.3752C10.4805 21.5375 11.9493 23.3603 13.9552 23.9273V55.0845C13.9552 56.4855 15.103 57.6212 16.5188 57.6212H41.6665C43.0824 57.6212 44.2301 56.4855 44.2301 55.0845V6.52404C44.2301 5.12304 43.0824 3.9873 41.6665 3.9873Z" fill="#3A85F4"/>
<path d="M47.1665 3.98791V52.5483C47.1665 53.9493 46.0187 55.0851 44.6029 55.0851H19.4552C18.0394 55.0851 16.8916 53.9493 16.8916 52.5483V3.98791C16.8916 2.58691 18.0394 1.45117 19.4552 1.45117H44.6029C46.0187 1.45117 47.1665 2.58691 47.1665 3.98791Z" fill="white"/>
<path d="M47.1665 7.97434V3.98791C47.1665 2.58691 46.0187 1.45117 44.6029 1.45117H19.4552C18.0394 1.45117 16.8916 2.58691 16.8916 3.98791V7.97421L47.1665 7.97434Z" fill="#D4EBFF"/>
<path d="M21.1746 5.53166C21.5515 5.53166 21.857 5.22934 21.857 4.85641C21.857 4.48347 21.5515 4.18115 21.1746 4.18115C20.7977 4.18115 20.4922 4.48347 20.4922 4.85641C20.4922 5.22934 20.7977 5.53166 21.1746 5.53166Z" fill="white"/>
<path d="M23.6082 5.53166C23.9851 5.53166 24.2906 5.22934 24.2906 4.85641C24.2906 4.48347 23.9851 4.18115 23.6082 4.18115C23.2313 4.18115 22.9258 4.48347 22.9258 4.85641C22.9258 5.22934 23.2313 5.53166 23.6082 5.53166Z" fill="white"/>
<path d="M26.0379 4.18115C26.4147 4.18115 26.7203 4.48351 26.7203 4.85641C26.7203 5.22931 26.4147 5.53166 26.0379 5.53166C25.661 5.53166 25.3555 5.22931 25.3555 4.85641C25.3555 4.48351 25.661 4.18115 26.0379 4.18115Z" fill="white"/>
<path d="M16.6852 22.2638C19.331 22.2638 21.4758 20.1415 21.4758 17.5234C21.4758 14.9053 19.331 12.783 16.6852 12.783C14.0394 12.783 11.8945 14.9053 11.8945 17.5234C11.8945 20.1415 14.0394 22.2638 16.6852 22.2638Z" fill="#D4EBFF"/>
<path d="M31.3841 31.5611V42.7785C31.3841 43.2863 31.1048 43.698 30.76 43.698H27.6397C27.2951 43.698 27.0156 43.2863 27.0156 42.7785V31.5611C27.0156 31.0533 27.2951 30.6416 27.6397 30.6416H30.76C31.1048 30.6416 31.3841 31.0533 31.3841 31.5611Z" fill="#D4EBFF"/>
<path d="M24.9974 33.4284V42.9201C24.9974 43.3497 24.7179 43.6981 24.3733 43.6981H21.253C20.9084 43.6981 20.6289 43.3497 20.6289 42.9201V33.4284C20.6289 32.9988 20.9084 32.6504 21.253 32.6504H24.3733C24.7179 32.6504 24.9974 32.9988 24.9974 33.4284Z" fill="#D4EBFF"/>
<path d="M37.432 27.8971V43.0946C37.432 43.6126 37.1525 44.0327 36.8079 44.0327H33.6875C33.3429 44.0327 33.0635 43.6126 33.0635 43.0946V27.8971C33.0635 27.3791 33.3429 26.959 33.6875 26.959H36.8079C37.1525 26.959 37.432 27.3791 37.432 27.8971Z" fill="#D4EBFF"/>
<path d="M43.4818 24.7299V42.9142C43.4818 43.347 43.2024 43.698 42.8577 43.698H39.7374C39.3927 43.698 39.1133 43.347 39.1133 42.9142V24.7299C39.1133 24.297 39.3927 23.946 39.7374 23.946H42.8577C43.2024 23.946 43.4818 24.297 43.4818 24.7299Z" fill="#D4EBFF"/>
<path d="M27.5513 12.2251H36.5236C36.817 12.2251 37.0866 12.0307 37.1444 11.7461C37.2231 11.3579 36.925 11.0171 36.5467 11.0171H27.5283C27.1499 11.0171 26.852 11.3579 26.9306 11.7461C26.9883 12.0307 27.2579 12.2251 27.5513 12.2251Z" fill="#5A5A5A"/>
<path d="M32.6077 16.5146H38.4498C38.6408 16.5146 38.8164 16.3376 38.854 16.0786C38.9053 15.7252 38.7112 15.415 38.4649 15.415H32.5927C32.3463 15.415 32.1524 15.7252 32.2036 16.0786C32.2411 16.3376 32.4167 16.5146 32.6077 16.5146Z" fill="#5A5A5A"/>
<path d="M24.4646 14.3156H32.9845C33.263 14.3156 33.5191 14.1387 33.5739 13.8796C33.6487 13.5262 33.3656 13.2161 33.0064 13.2161H24.4429C24.0835 13.2161 23.8007 13.5262 23.8753 13.8796C23.93 14.1387 24.1861 14.3156 24.4646 14.3156Z" fill="#5A5A5A"/>
<path d="M35.0429 14.3156H39.9113C40.0705 14.3156 40.2168 14.1387 40.2482 13.8796C40.2909 13.5262 40.1291 13.2161 39.9238 13.2161H35.0304C34.8251 13.2161 34.6634 13.5262 34.7061 13.8796C34.7374 14.1387 34.8837 14.3156 35.0429 14.3156Z" fill="#5A5A5A"/>
<path d="M25.8749 16.5146H30.7434C30.9025 16.5146 31.0489 16.3376 31.0802 16.0786C31.1229 15.7252 30.9612 15.415 30.7559 15.415H25.8624C25.6571 15.415 25.4955 15.7252 25.5381 16.0786C25.5694 16.3376 25.7157 16.5146 25.8749 16.5146Z" fill="#5A5A5A"/>
<path d="M44.7217 55.6881H37.9597C37.9266 55.6881 37.8936 55.6759 37.8697 55.6533C37.3112 55.1268 37.68 54.4801 38.2011 54.4801H44.2747C45.5344 54.4801 46.5555 53.4697 46.5555 52.2232V21.1975C46.5555 21.1648 46.5679 21.1322 46.5907 21.1085C47.1228 20.5558 47.7763 20.9208 47.7763 21.4365V52.6654C47.7764 54.3348 46.4088 55.6881 44.7217 55.6881Z" fill="#3A85F4"/>
<path d="M32.0604 51.6472C31.8983 51.6472 31.7429 51.5835 31.6284 51.47L30.9167 50.7646C30.6785 50.5284 30.6789 50.1461 30.9174 49.9104C31.1559 49.6749 31.5424 49.6751 31.7806 49.9111L32.0604 50.1884L32.3402 49.9111C32.5784 49.6751 32.9649 49.6747 33.2034 49.9104C33.4419 50.1461 33.4423 50.5285 33.2041 50.7646L32.4924 51.47C32.3781 51.5835 32.2225 51.6472 32.0604 51.6472Z" fill="#3A85F4"/>
<path d="M44.5998 0.846191H19.4523C17.6994 0.846191 16.2783 2.25239 16.2783 3.98692V12.1399C13.4643 12.3207 11.2305 14.6422 11.2305 17.4716C11.2305 20.301 13.4643 22.6226 16.2783 22.8034V52.711C16.2783 54.3552 17.6253 55.6881 19.2869 55.6881H34.9657C34.9988 55.6881 35.0318 55.6759 35.0557 55.6533C35.6142 55.1267 35.2454 54.4801 34.7241 54.4801H19.4523C18.3735 54.4801 17.4991 53.6148 17.4991 52.5473V22.764C20.0646 22.3522 22.0299 20.1456 22.0299 17.4923C22.0299 14.839 20.0646 12.6325 17.4991 12.2207V8.5772H46.5532V18.0117C46.5532 18.3022 46.7499 18.5693 47.0377 18.6261C47.4298 18.7034 47.774 18.4095 47.774 18.0365V3.97653C47.7738 2.25046 46.3501 0.846191 44.5998 0.846191ZM20.8645 17.5231C20.8645 19.804 18.9893 21.6595 16.6842 21.6595C14.3792 21.6595 12.504 19.804 12.504 17.5231C12.504 15.2422 14.3792 13.3866 16.6842 13.3866C18.9893 13.3866 20.8645 15.2422 20.8645 17.5231ZM46.5531 7.36923H17.4991V3.98692C17.4991 2.91943 18.3735 2.05416 19.4523 2.05416H44.6C45.6788 2.05416 46.5532 2.91943 46.5532 3.98692L46.5531 7.36923Z" fill="#3A85F4"/>
<path d="M18.8476 28.5615H28.3774C28.9492 28.5615 32.8335 25.3612 33.2375 25.0105L35.1332 23.3674C35.2681 23.2506 35.4473 23.1863 35.6379 23.1863H41.1219C41.694 23.1863 42.2427 22.9893 42.6471 22.6387L44.9679 20.627C45.1026 20.5102 45.2854 20.4445 45.476 20.4445L48.5585 20.4445C48.904 20.4445 49.2216 20.244 49.2896 19.9504C49.3824 19.5498 49.0312 19.1982 48.5857 19.1982L45.4637 19.1982C44.8917 19.1982 44.3432 19.3952 43.9388 19.7457L41.618 21.7575C41.4833 21.8743 41.3004 21.9399 41.1097 21.9399H35.6444C35.0724 21.9399 34.5241 22.1368 34.1196 22.4874L32.2301 24.1253C32.0954 24.2422 28.5659 27.3153 28.3753 27.3153H18.8205C18.3749 27.3153 18.0238 27.6668 18.1165 28.0674C18.1845 28.361 18.5021 28.5615 18.8476 28.5615Z" fill="#3A85F4"/>
<path d="M52.4229 10.0271H52.0492V9.65734C52.0492 9.36706 51.8528 9.10022 51.5651 9.04308C51.1728 8.96517 50.8284 9.26016 50.8284 9.63451V10.0271H50.4547C50.1614 10.0271 49.8917 10.2215 49.834 10.5061C49.7552 10.8943 50.0534 11.2351 50.4317 11.2351H50.8284V11.6048C50.8284 11.8951 51.0248 12.1619 51.3125 12.2191C51.7048 12.297 52.0492 12.002 52.0492 11.6277V11.2351H52.4459C52.8242 11.2351 53.1224 10.8943 53.0436 10.5061C52.986 10.2215 52.7162 10.0271 52.4229 10.0271Z" fill="#D4EBFF"/>
<path d="M55.9609 43.2461H55.5873V42.8763C55.5873 42.5861 55.3908 42.3192 55.1032 42.2621C54.7109 42.1842 54.3665 42.4792 54.3665 42.8535V43.2461H53.9928C53.6995 43.2461 53.4298 43.4405 53.3721 43.7251C53.2933 44.1133 53.5914 44.4541 53.9698 44.4541H54.3665V44.8238C54.3665 45.1141 54.5629 45.3809 54.8505 45.4381C55.2429 45.516 55.5873 45.221 55.5873 44.8467V44.4541H55.984C56.3623 44.4541 56.6604 44.1133 56.5817 43.7251C56.524 43.4405 56.2543 43.2461 55.9609 43.2461Z" fill="#D4EBFF"/>
<path d="M53.1216 38.2546C52.9436 38.2546 52.7649 38.2279 52.5901 38.1742C52.1353 38.0343 51.763 37.7276 51.5414 37.3105C51.32 36.8933 51.2758 36.4158 51.4172 35.966C51.5585 35.5161 51.8685 35.1476 52.29 34.9285C52.7115 34.7093 53.1942 34.6656 53.6487 34.8055C54.1035 34.9454 54.4759 35.2521 54.6974 35.6692C54.9189 36.0863 54.963 36.5638 54.8216 37.0137C54.6803 37.4635 54.3702 37.8321 53.9488 38.0512C53.6893 38.1861 53.4066 38.2546 53.1216 38.2546ZM53.1198 35.9337C52.8801 35.9337 52.6577 36.0867 52.5829 36.3246C52.5383 36.4664 52.5522 36.617 52.6221 36.7484C52.6919 36.8798 52.8093 36.9766 52.9526 37.0207C53.2481 37.1115 53.564 36.9477 53.6561 36.6549C53.7006 36.5131 53.6867 36.3626 53.6169 36.2311C53.547 36.0997 53.4297 36.0029 53.2864 35.9589C53.231 35.9418 53.1749 35.9337 53.1198 35.9337Z" fill="#D4EBFF"/>
<path d="M8.41448 30.4569C8.23649 30.4569 8.05778 30.4302 7.88296 30.3764C7.42835 30.2365 7.0559 29.9298 6.83445 29.5127C6.61288 29.0956 6.56881 28.6182 6.71018 28.1682C6.85154 27.7183 7.16149 27.3497 7.58302 27.1306C8.00443 26.9115 8.487 26.8677 8.94173 27.0076C9.88025 27.2965 10.4065 28.2871 10.1146 29.2158C9.97327 29.6657 9.66332 30.0342 9.24179 30.2534C8.98214 30.3885 8.69953 30.4569 8.41448 30.4569ZM8.41155 28.1358C8.3217 28.1358 8.23259 28.1574 8.1508 28.1999C8.01798 28.269 7.9202 28.3852 7.87564 28.527C7.78371 28.8198 7.94949 29.1321 8.24528 29.2231C8.38872 29.267 8.54071 29.2534 8.67353 29.1843C8.80635 29.1152 8.90413 28.9991 8.94869 28.8573C9.04061 28.5645 8.87483 28.2522 8.57892 28.1611C8.52398 28.1442 8.46771 28.1358 8.41155 28.1358Z" fill="#81C2FF"/>
<path d="M12.7778 33.8195C12.6029 33.8195 12.4251 33.7938 12.2496 33.7398C11.3109 33.451 10.7848 32.4604 11.0767 31.5316C11.218 31.0816 11.528 30.7132 11.9495 30.494C12.371 30.2747 12.8536 30.231 13.3082 30.371C13.763 30.5109 14.1353 30.8176 14.3569 31.2347C14.5784 31.6518 14.6225 32.1292 14.4811 32.5792C14.2439 33.3343 13.5379 33.8195 12.7778 33.8195ZM12.7783 31.4991C12.6884 31.4991 12.5993 31.5207 12.5175 31.5633C12.3847 31.6324 12.2869 31.7486 12.2424 31.8904C12.1505 32.1831 12.3162 32.4955 12.612 32.5864C12.9075 32.677 13.2233 32.5133 13.3154 32.2205C13.36 32.0787 13.3461 31.9283 13.2762 31.7968C13.2064 31.6653 13.089 31.5686 12.9457 31.5245C12.8907 31.5076 12.8343 31.4991 12.7783 31.4991Z" fill="#81C2FF"/>
<path d="M15.9956 15.5972C16.2432 14.8431 17.3117 14.8431 17.5593 15.5972C17.6695 15.9327 17.9857 16.1601 18.3387 16.1601C19.1278 16.1601 19.4656 17.1715 18.8249 17.6321C18.5372 17.839 18.4169 18.2089 18.5274 18.5456C18.7736 19.2952 17.9023 19.9129 17.2617 19.4523C16.9746 19.2459 16.5803 19.2459 16.2932 19.4523C15.6526 19.9129 14.7813 19.2952 15.0274 18.5456C15.138 18.2089 15.0177 17.839 14.7299 17.6321C14.0893 17.1715 14.4271 16.1601 15.2162 16.1601C15.5692 16.1601 15.8854 15.9327 15.9956 15.5972Z" fill="white"/>
<defs>
<linearGradient id="paint0_linear_73_8750" x1="29.2095" y1="15.2464" x2="35.6699" y2="46.4394" gradientUnits="userSpaceOnUse">
<stop stop-color="#77C2FE" stop-opacity="0"/>
<stop offset="1" stop-color="#77C2FE"/>
</linearGradient>
</defs>
</svg>
