<svg width="18" height="18" viewBox="0 0 18 18" fill="none" xmlns="http://www.w3.org/2000/svg">
<path d="M17.7794 7.0222C16.8552 2.91625 13.2094 -0.000491155 9.00183 1.02644e-06C5.30863 -0.00175676 1.98945 2.2543 0.631041 5.68962C-0.72737 9.12494 0.150918 13.0418 2.84605 15.5676C5.54119 18.0934 9.50568 18.7152 12.8443 17.1358C12.8468 17.1347 12.8494 17.1352 12.8517 17.1341C12.854 17.133 12.8553 17.1309 12.8576 17.1298C16.6593 15.3264 18.7036 11.1281 17.7794 7.0222ZM13.5934 1.9721L11.8952 2.56669C11.8608 2.57889 11.8288 2.59724 11.8009 2.6209C11.4435 2.90507 11.1127 3.22108 10.8125 3.56512C10.6151 3.7062 10.3997 3.82021 10.1721 3.90409C9.15623 3.97556 7.91675 4.09657 7.66458 4.27147C7.3559 4.48652 7.30434 5.1524 7.3153 5.67331C7.31632 5.71926 7.32789 5.76436 7.34915 5.80514L8.17447 7.39303C8.31091 7.64787 8.62616 7.74662 8.88354 7.61511C8.95295 7.58023 9.02324 7.541 9.09395 7.50145C9.09605 7.50028 9.09814 7.4991 9.10024 7.49793C9.15589 7.46684 9.21218 7.43539 9.27934 7.40094C9.38316 7.3488 9.51218 7.2852 9.57558 7.30338C9.59266 7.30865 9.60908 7.31593 9.62451 7.32507C9.60293 7.37766 9.56958 7.42456 9.52698 7.46218C9.31347 7.69537 9.10288 7.93091 8.89172 8.17408L8.18516 8.99058C8.16115 9.0181 8.13725 9.04566 8.10271 9.08841C7.89155 9.3814 7.80189 9.74474 7.85243 10.1024L7.88189 10.3034C7.91141 10.5107 7.85742 10.7212 7.73178 10.8887L7.14046 11.6897C7.08949 11.756 7.04553 11.8275 7.00926 11.903L6.38616 13.1999H5.89321C6.034 13.0572 6.09034 12.8514 6.04184 12.6568L5.47027 10.347C5.46623 10.3238 5.46074 10.3008 5.45312 10.2785L5.0403 9.16843C5.0236 9.12315 5.01517 9.0752 5.01541 9.02693V8.97303C5.01703 8.58755 4.79878 8.2349 4.45309 8.06454L4.42673 8.05283C4.25399 7.96311 4.0584 7.9269 3.86499 7.94884L3.05475 8.03908C2.9239 8.05381 2.79443 8.00175 2.71015 7.90054L2.20141 7.29877C2.13868 7.22407 2.10417 7.12971 2.10389 7.03219V6.50105C2.10248 6.39288 2.14423 6.28861 2.21987 6.2113L2.87561 5.54889C2.93308 5.48994 2.98351 5.42458 3.026 5.35406L3.23775 4.99431C3.3085 4.87309 3.43864 4.79902 3.57895 4.80007H4.44704C4.56154 4.79948 4.6705 4.84943 4.74476 4.93658C4.93469 5.14492 5.20327 5.26406 5.48517 5.26501H5.8044C5.93654 5.26501 6.05309 5.17849 6.0914 5.052L6.36876 4.13707C6.40226 4.02619 6.36905 3.90592 6.2834 3.82798C6.1103 3.67125 5.96624 3.48521 5.85785 3.27839C5.6622 2.80494 4.80774 2.49881 4.57356 2.46189C4.42033 2.37457 4.27669 2.27135 4.1451 2.15393C6.95587 0.150503 10.7077 0.0783283 13.5934 1.9721ZM5 16C2.45666 15.3303 0.604401 12.2425 0.604401 8.99989C0.604401 6.10355 1.72319 4.12051 3.65574 2.52707C4.20085 2.98375 4.37292 3.04281 4.48872 3.0556C4.79575 3.12975 5.0771 3.28542 5.30308 3.5062C5.412 3.73998 5.56063 3.9531 5.7424 4.13608L5.58203 4.6649H5.48524C5.3739 4.66451 5.26769 4.61807 5.19177 4.53658C5.00371 4.3222 4.73225 4.19951 4.44715 4.19996H3.57905C3.22665 4.20035 2.90053 4.3865 2.7209 4.68979L2.51295 5.04339C2.49502 5.07299 2.47393 5.10058 2.45014 5.12572L1.79408 5.78841C1.60665 5.97793 1.5023 6.23429 1.50413 6.50091V7.03205C1.50469 7.27068 1.5889 7.50155 1.7421 7.68447L2.25231 8.28771C2.4662 8.54178 2.79288 8.67213 3.1229 8.63515L3.93124 8.54522C4.01162 8.53622 4.09284 8.55239 4.16366 8.59152L4.19308 8.60499C4.33113 8.6754 4.41738 8.81796 4.41566 8.97296V9.02686C4.41541 9.14758 4.43692 9.26739 4.4792 9.38045L4.88351 10.4671C4.88481 10.4732 4.88601 10.4788 4.88689 10.482L5.45639 12.7879L5.39941 12.843C5.23423 13.0227 5.19561 13.2851 5.30203 13.5048C5.39333 13.6854 5.57827 13.7994 5.7806 13.7999H6.38613C6.60431 13.8001 6.80359 13.6759 6.89953 13.4799L7.54958 12.1634C7.56934 12.1229 7.59317 12.0846 7.62075 12.0491L8.21296 11.2467C8.43321 10.9527 8.52772 10.5832 8.47567 10.2195L8.44622 10.018C8.41747 9.82008 8.46453 9.61864 8.57801 9.454L8.63688 9.38517C8.66018 9.35852 8.68345 9.33183 8.70148 9.30986L9.34492 8.56691C9.55214 8.32873 9.75961 8.09632 9.96728 7.86967C10.1557 7.70718 10.2475 7.45922 10.2102 7.21317C10.1556 6.98156 9.98088 6.79713 9.75261 6.73006C9.4906 6.67564 9.21773 6.727 8.99347 6.87304C8.92919 6.90615 8.86491 6.94187 8.80105 6.97762C8.75757 7.00192 8.71434 7.02625 8.67161 7.0491L7.91422 5.59189C7.90329 5.31205 7.93805 5.03231 8.01716 4.76369C8.75817 4.62412 9.5079 4.53581 10.2611 4.49942C10.2919 4.49717 10.3222 4.49024 10.351 4.47892C10.7182 4.33303 11.1842 4.11155 11.3167 3.88831C11.5753 3.61202 11.8523 3.35362 12.1459 3.11488L14.1873 2.40019C15.649 3.54888 16.6893 5.14945 17.1457 6.95193L17.0367 6.89469C16.8334 6.78701 16.6014 6.74574 16.3734 6.77664L14.8266 6.98026C14.5385 7.01341 14.3213 7.25789 14.3223 7.54803V7.824H14.0104C13.8115 7.8252 13.6268 7.92739 13.5201 8.0953L13.4201 8.2529C13.1633 8.66169 13.0989 9.16266 13.244 9.6231L13.4814 10.3875L13.2713 10.4601C13.118 10.5143 12.9948 10.6308 12.9323 10.7809C12.8713 10.9288 12.8756 11.0955 12.9443 11.24L13.6404 12.7174L13.1986 12.7227L12.3611 12.0544C12.2122 11.9415 12.0186 11.906 11.8393 11.9589L10.6038 12.3316C10.4162 12.3906 10.2718 12.5416 10.2211 12.7318C10.1705 12.9219 10.2206 13.1247 10.354 13.2694L10.5258 13.4533C10.5887 13.5175 10.6653 13.5666 10.75 13.5969L11.254 13.758V14.3158C11.2552 14.4002 11.2731 14.4836 11.3068 14.561L12.3219 16.714C11.3693 17.1247 9.72511 17.3136 8.70148 16.7967C8.00051 16.4427 9.36686 14.4433 8.70148 14.0619C8.26863 13.8138 7.39823 15.144 7 15C6.46957 14.8082 5.49334 16.1299 5 16ZM12.8632 16.4554L11.8539 14.3158V13.758C11.8543 13.5136 11.7006 13.2956 11.4704 13.2139L10.9577 13.0373L10.8222 12.892L11.9939 12.5284L12.8224 13.1896C12.9256 13.2719 13.0537 13.3167 13.1856 13.3167H13.6774C13.8742 13.3178 14.0579 13.2184 14.1649 13.0531C14.2708 12.8891 14.2854 12.6822 14.2035 12.5049L13.5015 11.0152L13.7075 10.944C13.996 10.8412 14.1525 10.5296 14.0628 10.2368L13.8163 9.44314C13.724 9.15061 13.7648 8.8323 13.9278 8.57243L14.0104 8.4239H14.3461C14.6624 8.4252 14.9201 8.17018 14.9221 7.85378V7.57281L16.455 7.37095C16.5597 7.35667 16.6662 7.37619 16.7591 7.4266L16.8787 7.48932C17.0044 7.554 17.1412 7.5944 17.282 7.60832C17.89 11.2049 16.1034 14.782 12.8632 16.4554Z" fill="#575756"/>
<path d="M13.5934 1.9721L11.8952 2.56669C11.8608 2.57889 11.8288 2.59724 11.8009 2.6209C11.4435 2.90507 11.1127 3.22108 10.8125 3.56512C10.6151 3.7062 10.3997 3.82021 10.1721 3.90409C9.15623 3.97556 7.91675 4.09657 7.66458 4.27147C7.3559 4.48652 7.30434 5.1524 7.3153 5.67331C7.31632 5.71926 7.32789 5.76436 7.34915 5.80514L8.17447 7.39303C8.31091 7.64787 8.62616 7.74662 8.88354 7.61511C8.95295 7.58023 9.02324 7.541 9.09395 7.50145L9.10024 7.49793C9.15589 7.46684 9.21218 7.43539 9.27934 7.40094C9.38316 7.3488 9.51218 7.2852 9.57558 7.30338C9.59266 7.30865 9.60908 7.31593 9.62451 7.32507C9.60293 7.37766 9.56958 7.42456 9.52698 7.46218C9.31347 7.69537 9.10288 7.93091 8.89172 8.17408L8.18516 8.99058C8.16115 9.0181 8.13725 9.04566 8.10271 9.08841C7.89155 9.3814 7.80189 9.74474 7.85243 10.1024L7.88189 10.3034C7.91141 10.5107 7.85742 10.7212 7.73178 10.8887L7.14046 11.6897C7.08949 11.756 7.04553 11.8275 7.00926 11.903L6.38616 13.1999H5.89321C6.034 13.0572 6.09034 12.8514 6.04184 12.6568L5.47027 10.347C5.46623 10.3238 5.46074 10.3008 5.45312 10.2785L5.0403 9.16843C5.0236 9.12315 5.01517 9.0752 5.01541 9.02693V8.97303C5.01703 8.58755 4.79878 8.2349 4.45309 8.06454L4.42673 8.05283C4.25399 7.96311 4.0584 7.9269 3.86499 7.94884L3.05475 8.03908C2.9239 8.05381 2.79443 8.00175 2.71015 7.90054L2.20141 7.29877C2.13868 7.22407 2.10417 7.12971 2.10389 7.03219V6.50105C2.10248 6.39288 2.14423 6.28861 2.21987 6.2113L2.87561 5.54889C2.93308 5.48994 2.98351 5.42458 3.026 5.35406L3.23775 4.99431C3.3085 4.87309 3.43864 4.79902 3.57895 4.80007H4.44704C4.56154 4.79948 4.6705 4.84943 4.74476 4.93658C4.93469 5.14492 5.20327 5.26406 5.48517 5.26501H5.8044C5.93654 5.26501 6.05309 5.17849 6.0914 5.052L6.36876 4.13707C6.40226 4.02619 6.36905 3.90592 6.2834 3.82798C6.1103 3.67125 5.96624 3.48521 5.85785 3.27839C5.6622 2.80494 4.80774 2.49881 4.57356 2.46189C4.42033 2.37457 4.27669 2.27135 4.1451 2.15393C6.95587 0.150503 10.7077 0.0783283 13.5934 1.9721Z" fill="#575756"/>
<path d="M12.8632 16.4554L11.8539 14.3158V13.758C11.8543 13.5136 11.7006 13.2956 11.4704 13.2139L10.9577 13.0373L10.8222 12.892L11.9939 12.5284L12.8224 13.1896C12.9256 13.2719 13.0537 13.3167 13.1856 13.3167H13.6774C13.8742 13.3178 14.0579 13.2184 14.1649 13.0531C14.2708 12.8891 14.2854 12.6822 14.2035 12.5049L13.5015 11.0152L13.7075 10.944C13.996 10.8412 14.1525 10.5296 14.0628 10.2368L13.8163 9.44314C13.724 9.15061 13.7648 8.8323 13.9278 8.57243L14.0104 8.4239H14.3461C14.6624 8.4252 14.9201 8.17018 14.9221 7.85378V7.57281L16.455 7.37095C16.5597 7.35667 16.6662 7.37619 16.7591 7.4266L16.8787 7.48932C17.0044 7.554 17.1412 7.5944 17.282 7.60832C17.89 11.2049 16.1034 14.782 12.8632 16.4554Z" fill="#575756"/>
</svg>
