<svg width="11" height="11" viewBox="0 0 11 11" fill="none" xmlns="http://www.w3.org/2000/svg">
<path fill-rule="evenodd" clip-rule="evenodd" d="M1.25901 5.96237L1.51745 5.71451L4.65231 2.57721L5.94281 1.28574C6.14565 1.08272 6.42597 0.979712 6.71189 1.00332L9.03341 1.19442C9.42649 1.22676 9.73847 1.53551 9.77524 1.92854L9.8174 2.37964L9.99572 4.28727C10.0228 4.57735 9.9203 4.86189 9.71447 5.06788L6.51494 8.26993L5.03445 9.74078C4.86742 9.90794 4.64534 10 4.4091 10C4.17287 10 3.95078 9.90797 3.78375 9.74078L1.25901 7.21405C1.09198 7.04689 1 6.82463 1 6.58821C1 6.35179 1.09198 6.12953 1.25901 5.96237ZM6.23128 1.57444L4.94626 2.86041L1.54751 6.25107C1.44434 6.35432 1.39433 6.49654 1.41119 6.64457C1.42365 6.75382 1.4767 6.85447 1.55441 6.93223L4.07225 9.45206C4.25831 9.63824 4.55995 9.63824 4.74598 9.45206L9.42598 4.77913C9.54565 4.65936 9.60527 4.49394 9.5895 4.32526L9.40762 2.37964L9.36901 1.96658C9.35072 1.77105 9.19553 1.61745 8.99994 1.60134L6.67844 1.41024C6.51225 1.39663 6.34919 1.45638 6.23128 1.57444Z" stroke="#BFD1E0" stroke-width="0.8"/>
</svg>
