<svg width="72" height="69" viewBox="0 0 72 69" fill="none" xmlns="http://www.w3.org/2000/svg">
<path d="M65.7008 4.20836C57.2833 -0.79345 46.3911 -0.515755 38.1243 4.60877C33.4797 7.4879 29.8894 11.6404 25.818 15.2152C22.2504 18.3475 18.1018 20.5818 14.4172 23.5373C1.05495 34.2558 2.32992 63.1653 21.1455 67.0054C29.3016 68.67 40.4489 69.2039 45.2426 61.259C49.8133 53.6838 51.3464 45.9347 60.2771 41.9109C63.3893 40.5086 68.5914 40.5793 70.6997 37.5065C73.3602 33.6288 70.059 29.6005 68.2979 26.2213C66.0284 21.8664 65.5524 17.5729 67.1494 12.9014C68.509 8.92351 69.4663 7.1366 65.7008 4.20836Z" fill="url(#paint0_linear_73_8651)"/>
<path opacity="0.1" d="M54.3454 41.0665C48.886 41.0665 44.2199 44.452 42.3417 49.2327C42.3286 49.228 42.3169 49.2211 42.3033 49.2172L35.0891 47.1114C35.5214 45.8263 35.756 44.4508 35.756 43.0205C35.756 39.7006 34.4938 36.6748 32.4221 34.3941L40.2942 29.055C40.3036 29.0485 40.3109 29.0404 40.3199 29.0335C42.6811 31.9886 46.3203 33.883 50.4037 33.883C57.5214 33.883 63.2914 28.1284 63.2914 21.0298C63.2914 13.9311 57.5214 8.17651 50.4037 8.17651C43.2859 8.17651 37.5159 13.9311 37.5159 21.0298C37.5159 23.5846 38.2634 25.9652 39.552 27.9662H39.5519L31.5889 33.367C31.5486 33.3942 31.513 33.4257 31.4809 33.4597C29.1983 31.4131 26.1793 30.1672 22.8682 30.1672C15.7505 30.1672 9.98047 35.9218 9.98047 43.0205C9.98047 50.1192 15.7505 55.8737 22.8682 55.8737C28.0857 55.8737 32.579 52.7814 34.6062 48.3343C34.6298 48.3444 34.6524 48.3558 34.6775 48.3632L41.9253 50.4789C41.6208 51.5741 41.4575 52.7278 41.4575 53.9197C41.4575 61.0184 47.2275 66.773 54.3453 66.773C61.463 66.773 67.2331 61.0184 67.2331 53.9197C67.2331 46.821 61.4632 41.0665 54.3454 41.0665Z" fill="#3A85F4"/>
<path d="M50.4034 30.7233C57.5211 30.7233 63.2912 24.9687 63.2912 17.8701C63.2912 10.7714 57.5211 5.01685 50.4034 5.01685C43.2857 5.01685 37.5156 10.7714 37.5156 17.8701C37.5156 24.9687 43.2857 30.7233 50.4034 30.7233Z" fill="#D4EBFF"/>
<path d="M22.8643 52.7141C29.982 52.7141 35.7521 46.9595 35.7521 39.8608C35.7521 32.7622 29.982 27.0076 22.8643 27.0076C15.7466 27.0076 9.97656 32.7622 9.97656 39.8608C9.97656 46.9595 15.7466 52.7141 22.8643 52.7141Z" fill="#D4EBFF"/>
<path d="M54.3448 63.6132C61.4625 63.6132 67.2326 57.8586 67.2326 50.76C67.2326 43.6613 61.4625 37.9067 54.3448 37.9067C47.2271 37.9067 41.457 43.6613 41.457 50.76C41.457 57.8586 47.2271 63.6132 54.3448 63.6132Z" fill="#D4EBFF"/>
<path d="M25.2727 19.2521C24.908 19.2521 24.6126 18.9573 24.6126 18.5937C24.6126 18.158 24.2572 17.8037 23.8203 17.8037C23.4556 17.8037 23.1602 17.5089 23.1602 17.1453C23.1602 16.7818 23.4556 16.487 23.8203 16.487C24.2572 16.487 24.6126 16.1326 24.6126 15.6969C24.6126 15.3334 24.908 15.0386 25.2727 15.0386C25.6373 15.0386 25.9328 15.3334 25.9328 15.6969C25.9328 16.1326 26.2881 16.487 26.7248 16.487C27.0895 16.487 27.385 16.7818 27.385 17.1453C27.385 17.5089 27.0895 17.8037 26.7248 17.8037C26.2881 17.8037 25.9328 18.158 25.9328 18.5937C25.9328 18.9573 25.6373 19.2521 25.2727 19.2521Z" fill="#81C2FF"/>
<path d="M64.7071 32.8583C64.3425 32.8583 64.047 32.5635 64.047 32.1999C64.047 31.7642 63.6917 31.4099 63.2549 31.4099C62.8902 31.4099 62.5947 31.1151 62.5947 30.7515C62.5947 30.388 62.8902 30.0932 63.2549 30.0932C63.6917 30.0932 64.047 29.7388 64.047 29.3031C64.047 28.9396 64.3425 28.6448 64.7071 28.6448C65.0718 28.6448 65.3673 28.9396 65.3673 29.3031C65.3673 29.7388 65.7225 30.0932 66.1594 30.0932C66.5241 30.0932 66.8195 30.388 66.8195 30.7515C66.8195 31.1151 66.5241 31.4099 66.1594 31.4099C65.7225 31.4099 65.3673 31.7642 65.3673 32.1999C65.3673 32.5635 65.0718 32.8583 64.7071 32.8583Z" fill="#D4EBFF"/>
<path d="M29.629 59.9444C29.2644 59.9444 28.9689 59.6496 28.9689 59.2861C28.9689 58.8504 28.6136 58.4961 28.1767 58.4961C27.8121 58.4961 27.5166 58.2012 27.5166 57.8377C27.5166 57.4742 27.8121 57.1793 28.1767 57.1793C28.6136 57.1793 28.9689 56.825 28.9689 56.3893C28.9689 56.0258 29.2644 55.731 29.629 55.731C29.9937 55.731 30.2891 56.0258 30.2891 56.3893C30.2891 56.825 30.6444 57.1793 31.0813 57.1793C31.4459 57.1793 31.7414 57.4742 31.7414 57.8377C31.7414 58.2012 31.4459 58.4961 31.0813 58.4961C30.6444 58.4961 30.2891 58.8504 30.2891 59.2861C30.2891 59.6496 29.9937 59.9444 29.629 59.9444Z" fill="#81C2FF"/>
<path d="M30.1632 23.0705C29.9943 23.0705 29.8252 23.0063 29.6964 22.8778L28.2442 21.4294C27.9863 21.1722 27.9863 20.7554 28.2442 20.4983L29.6964 19.0499C29.954 18.7929 30.3723 18.7929 30.6299 19.0499L32.0821 20.4983C32.34 20.7555 32.34 21.1724 32.0821 21.4294L30.6299 22.8778C30.5011 23.0061 30.3321 23.0705 30.1632 23.0705ZM29.6444 20.9638L30.1632 21.4811L30.6819 20.9638L30.1632 20.4465L29.6444 20.9638Z" fill="#D4EBFF"/>
<path d="M37.1983 61.6919C37.0294 61.6919 36.8603 61.6276 36.7316 61.4991L35.2793 60.0507C35.0215 59.7936 35.0215 59.3767 35.2793 59.1197L36.7316 57.6713C36.9892 57.4143 37.4074 57.4143 37.665 57.6713L39.1173 59.1197C39.3751 59.3768 39.3751 59.7937 39.1173 60.0507L37.665 61.4991C37.5363 61.6276 37.3673 61.6919 37.1983 61.6919ZM36.6797 59.5851L37.1984 60.1025L37.7172 59.5851L37.1984 59.0678L36.6797 59.5851Z" fill="#9ED0FF"/>
<path d="M2.37018 48.2658C2.20132 48.2658 2.0322 48.2016 1.90347 48.0731L0.451196 46.6247C0.193351 46.3675 0.193351 45.9507 0.451196 45.6936L1.90347 44.2453C2.16105 43.9882 2.57931 43.9882 2.83689 44.2453L4.28917 45.6936C4.54701 45.9508 4.54701 46.3677 4.28917 46.6247L2.83689 48.0731C2.70817 48.2016 2.53917 48.2658 2.37018 48.2658ZM1.85159 46.1591L2.37032 46.6764L2.88904 46.1591L2.37032 45.6418L1.85159 46.1591Z" fill="#81C2FF"/>
<path d="M32.0391 30.5691L39.7458 25.3257" stroke="#5A5A5A" stroke-width="3"/>
<path fill-rule="evenodd" clip-rule="evenodd" d="M22.8752 53.372C28.3801 53.372 33.1284 50.0802 35.2459 45.3669C35.3382 45.1793 35.5639 44.6705 35.7278 44.1356C36.1786 42.7914 36.4233 41.3539 36.4233 39.8604C36.4233 36.4083 35.118 33.2551 32.9744 30.8642C32.8674 30.7429 32.3013 30.1783 32.0316 29.9111C29.6186 27.7004 26.4024 26.3486 22.875 26.3486C15.4047 26.3486 9.32715 32.4099 9.32715 39.8602C9.32728 47.3107 15.4048 53.372 22.8752 53.372ZM39.0174 25.1732C39.2393 25.4872 39.7038 26.141 39.7865 26.2439C42.2701 29.3711 46.1095 31.381 50.4109 31.381C53.6354 31.381 56.7594 30.2319 59.2073 28.1453C61.6279 26.0821 63.2487 23.23 63.7714 20.1144C63.8315 19.7557 63.5888 19.4164 63.2293 19.3563C62.8705 19.297 62.5295 19.5384 62.4692 19.8971C61.9978 22.7082 60.5347 25.2818 58.3495 27.1444C56.1405 29.0273 53.3211 30.0644 50.4109 30.0644C43.6685 30.0644 38.1831 24.5938 38.1831 17.8695C38.1831 11.1452 43.6685 5.67463 50.4109 5.67463C56.3338 5.67463 61.3943 9.88693 62.4436 15.6905C62.5083 16.0484 62.8512 16.2858 63.2106 16.2215C63.5693 16.157 63.8077 15.8146 63.743 15.4568C62.58 9.02566 56.9732 4.35791 50.4106 4.35791C42.9402 4.35791 36.8626 10.4191 36.8626 17.8695C36.8626 20.5582 37.6545 23.0659 39.0174 25.1732ZM40.8045 50.7595C40.8045 49.5204 40.9723 48.3034 41.2982 47.1335C41.3382 46.9018 41.593 46.2036 41.7154 45.8834C42.1056 44.879 42.6165 43.9183 43.2465 43.0206C43.4556 42.7226 43.8673 42.6503 44.1659 42.8588C44.4646 43.0672 44.5372 43.4776 44.3282 43.7756C42.8867 45.8296 42.1248 48.2445 42.1248 50.7595C42.1248 57.4838 47.6102 62.9544 54.3525 62.9544C61.0947 62.9544 66.5801 57.4838 66.5801 50.7595C66.5801 44.0351 61.0947 38.5646 54.3525 38.5646C51.8099 38.5646 49.3722 39.3355 47.3031 40.7942C47.0057 41.0039 46.5936 40.9336 46.383 40.6366C46.1726 40.3396 46.2434 39.9288 46.5411 39.7189C48.8342 38.1024 51.5353 37.2479 54.3523 37.2479C61.8227 37.2479 67.9002 43.3092 67.9002 50.7595C67.9002 58.2098 61.8227 64.2711 54.3523 64.2711C46.882 64.2711 40.8045 58.2098 40.8045 50.7595ZM22.8752 27.6653C29.6174 27.6653 35.1028 33.1359 35.1028 39.8602C35.1028 46.5846 29.6174 52.0551 22.8752 52.0551C16.1329 52.0551 10.6475 46.5846 10.6475 39.8602C10.6475 33.136 16.1329 27.6653 22.8752 27.6653Z" fill="#3A85F4"/>
<defs>
<linearGradient id="paint0_linear_73_8651" x1="5.52717" y1="34.3148" x2="71.6984" y2="34.3148" gradientUnits="userSpaceOnUse">
<stop stop-color="#6EBDFE" stop-opacity="0"/>
<stop offset="1" stop-color="#6EBDFE"/>
</linearGradient>
</defs>
</svg>
