<svg width="68" height="69" viewBox="0 0 68 69" fill="none" xmlns="http://www.w3.org/2000/svg">
<path d="M24.0584 0.730406C10.6084 0.801499 3.85585 23.8424 1.33572 35.686C-1.18441 47.5298 1.44893 71.8264 20.9963 68.6033C24.156 68.0824 24.8935 67.9756 27.4981 66.6733C32.1341 64.3553 37.6206 62.7244 42.5788 62.2321C44.6119 62.0302 47.1827 61.3616 48.5432 61.118C59.4532 59.1637 70.5872 48.6353 67.2164 37.6035C64.6851 29.3189 57.2685 25.9839 49.8411 26.4424C45.7621 26.6941 41.4211 24.3108 40.5505 21.6778C37.7151 13.1016 34.4541 0.675554 24.0584 0.730406Z" fill="url(#paint0_linear_73_8698)"/>
<path opacity="0.1" d="M59.7452 11.3564C60.9006 11.3564 61.8371 12.2893 61.8371 13.4401V47.6363C61.8371 48.1432 61.7155 48.6427 61.4822 49.0932L60.3392 51.3018C60.0903 51.7827 59.4001 51.7827 59.1512 51.3018L58.0082 49.0932C57.7751 48.6427 57.6533 48.1432 57.6533 47.6363V13.4401C57.6533 12.2893 58.5899 11.3564 59.7452 11.3564Z" fill="#3A85F4"/>
<path opacity="0.1" d="M51.9163 65.1915H15.1624C13.686 65.1915 12.4893 63.9994 12.4893 62.5288V13.8858C12.4893 12.4152 13.686 11.2231 15.1624 11.2231H51.9163C53.3927 11.2231 54.5895 12.4152 54.5895 13.8858V62.5288C54.5895 63.9993 53.3926 65.1915 51.9163 65.1915Z" fill="#3A85F4"/>
<path d="M51.9163 61.5975H15.1624C13.686 61.5975 12.4893 60.4054 12.4893 58.9348V10.2918C12.4893 8.82124 13.686 7.62915 15.1624 7.62915H51.9163C53.3927 7.62915 54.5895 8.82124 54.5895 10.2918V58.9348C54.5895 60.4053 53.3926 61.5975 51.9163 61.5975Z" fill="#D4EBFF"/>
<path fill-rule="evenodd" clip-rule="evenodd" d="M51.9245 62.2626H15.1706C13.3281 62.2626 11.8291 60.7695 11.8291 58.9343V10.2912C11.8291 8.45599 13.3281 6.96289 15.1706 6.96289H32.1831H51.9245C53.7669 6.96289 55.2659 8.45599 55.2659 10.2912V58.9341C55.2659 60.7695 53.7669 62.2626 51.9245 62.2626ZM15.1706 8.29423H32.1831H51.9245C53.03 8.29423 53.9293 9.19009 53.9293 10.2912V58.9341C53.9293 60.0353 53.03 60.9311 51.9245 60.9311H15.1706C14.0651 60.9311 13.1657 60.0353 13.1657 58.9341V10.2912C13.1657 9.19009 14.0651 8.29423 15.1706 8.29423Z" fill="#3A85F4"/>
<path d="M51.3843 11.4899V57.7354C51.3843 58.1042 51.0849 58.4011 50.716 58.4011H42.7708C43.0267 58.4011 42.4295 58.4011 42.7708 58.4011H24.3373C24.5932 58.4011 24.0815 58.4011 24.3373 58.4011H16.3685C15.9996 58.4011 15.7002 58.1042 15.7002 57.7354V11.4899C15.7002 11.1211 15.9996 10.8242 16.3685 10.8242H24.3373L42.7472 10.8242L50.716 10.8242C51.0849 10.8242 51.3843 11.1211 51.3843 11.4899Z" fill="white"/>
<path d="M9.47968 26.0192H9.0787V25.6198C9.0787 25.2521 8.77944 24.9541 8.41041 24.9541C8.04138 24.9541 7.74212 25.2521 7.74212 25.6198V26.0192H7.34114C6.97211 26.0192 6.67285 26.3171 6.67285 26.6848C6.67285 27.0526 6.97211 27.3505 7.34114 27.3505H7.74212V27.7499C7.74212 28.1176 8.04138 28.4156 8.41041 28.4156C8.77944 28.4156 9.0787 28.1176 9.0787 27.7499V27.3505H9.47968C9.84871 27.3505 10.148 27.0526 10.148 26.6848C10.148 26.3171 9.84871 26.0192 9.47968 26.0192Z" fill="#81C2FF"/>
<path d="M60.2766 56.8139H59.8756V56.4145C59.8756 56.0467 59.5763 55.7488 59.2073 55.7488C58.8383 55.7488 58.539 56.0467 58.539 56.4145V56.8139H58.138C57.769 56.8139 57.4697 57.1118 57.4697 57.4795C57.4697 57.8472 57.769 58.1452 58.138 58.1452H58.539V58.5446C58.539 58.9123 58.8383 59.2103 59.2073 59.2103C59.5763 59.2103 59.8756 58.9123 59.8756 58.5446V58.1452H60.2766C60.6456 58.1452 60.9448 57.8472 60.9448 57.4795C60.9448 57.1118 60.6456 56.8139 60.2766 56.8139Z" fill="#D4EBFF"/>
<path d="M6.94452 31.9701H6.54355V31.5707C6.54355 31.203 6.24429 30.905 5.87525 30.905C5.50622 30.905 5.20696 31.203 5.20696 31.5707V31.9701H4.80599C4.43696 31.9701 4.1377 32.2681 4.1377 32.6358C4.1377 33.0035 4.43696 33.3014 4.80599 33.3014H5.20696V33.7008C5.20696 34.0686 5.50622 34.3665 5.87525 34.3665C6.24429 34.3665 6.54355 34.0686 6.54355 33.7008V33.3014H6.94452C7.31355 33.3014 7.61281 33.0035 7.61281 32.6358C7.61281 32.2681 7.31355 31.9701 6.94452 31.9701Z" fill="#D4EBFF"/>
<path d="M8.01089 10.6915C7.83981 10.6915 7.66886 10.6266 7.53828 10.4965L6.94163 9.9022L6.34498 10.4965C6.08394 10.7565 5.66091 10.7565 5.39988 10.4965C5.13884 10.2366 5.13884 9.81513 5.39988 9.55525L6.46914 8.49017C6.73018 8.23016 7.15321 8.23016 7.41424 8.49017L8.48351 9.55525C8.74454 9.81513 8.74454 10.2366 8.48351 10.4965C8.35292 10.6266 8.18198 10.6915 8.01089 10.6915Z" fill="#D4EBFF"/>
<path d="M63.9689 54.4296C63.7978 54.4296 63.6269 54.3646 63.4963 54.2345L62.8996 53.6402L62.303 54.2345C62.0419 54.4946 61.6189 54.4946 61.3579 54.2345C61.0969 53.9747 61.0969 53.5532 61.3579 53.2933L62.4272 52.2282C62.6882 51.9682 63.1112 51.9682 63.3722 52.2282L64.4415 53.2933C64.7025 53.5532 64.7025 53.9747 64.4415 54.2345C64.3109 54.3645 64.14 54.4296 63.9689 54.4296Z" fill="#D4EBFF"/>
<path d="M48.7073 31.1543H18.431C18.0618 31.1543 17.7627 30.8562 17.7627 30.4885C17.7627 30.1209 18.0618 29.8228 18.431 29.8228H48.7073C49.0764 29.8228 49.3756 30.1209 49.3756 30.4885C49.3756 30.8562 49.0764 31.1543 48.7073 31.1543Z" fill="#5A5A5A"/>
<path d="M48.7073 17.7019H18.431C18.0618 17.7019 17.7627 17.4038 17.7627 17.0362C17.7627 16.6685 18.0618 16.3704 18.431 16.3704H48.7073C49.0764 16.3704 49.3756 16.6685 49.3756 17.0362C49.3756 17.4038 49.0764 17.7019 48.7073 17.7019Z" fill="#5A5A5A"/>
<path d="M20.639 27.1556H18.431C18.0618 27.1556 17.7627 26.8574 17.7627 26.4898C17.7627 26.1221 18.0618 25.824 18.431 25.824H20.639C21.0082 25.824 21.3073 26.1221 21.3073 26.4898C21.3073 26.8574 21.0082 27.1556 20.639 27.1556Z" fill="#5A5A5A"/>
<path d="M34.8104 32.4194H18.4597C18.1107 32.4194 17.799 32.6736 17.7658 33.0197C17.7278 33.4168 18.0402 33.751 18.4309 33.751H34.8104C35.1794 33.751 35.4786 33.4529 35.4786 33.0852C35.4786 32.7174 35.1794 32.4194 34.8104 32.4194Z" fill="#5A5A5A"/>
<path d="M44.6662 32.4194H38.2161C37.8471 32.4194 37.5479 32.7176 37.5479 33.0852C37.5479 33.4529 37.8471 33.751 38.2161 33.751H44.695C45.0858 33.751 45.3981 33.4168 45.36 33.0197C45.327 32.6736 45.0153 32.4194 44.6662 32.4194Z" fill="#5A5A5A"/>
<path d="M34.8104 18.9668H18.4597C18.1107 18.9668 17.799 19.221 17.7658 19.5671C17.7278 19.9641 18.0402 20.2984 18.4309 20.2984H34.8104C35.1794 20.2984 35.4786 20.0002 35.4786 19.6326C35.4786 19.2648 35.1794 18.9668 34.8104 18.9668Z" fill="#5A5A5A"/>
<path d="M44.6662 18.9668H38.2161C37.8471 18.9668 37.5479 19.2649 37.5479 19.6326C37.5479 20.0002 37.8471 20.2984 38.2161 20.2984H44.695C45.0858 20.2984 45.3981 19.9641 45.36 19.5671C45.327 19.221 45.0153 18.9668 44.6662 18.9668Z" fill="#5A5A5A"/>
<path d="M48.7073 36.3474H18.431C18.0618 36.3474 17.7627 36.0493 17.7627 35.6817C17.7627 35.314 18.0618 35.0159 18.431 35.0159H48.7073C49.0764 35.0159 49.3756 35.314 49.3756 35.6817C49.3756 36.0493 49.0764 36.3474 48.7073 36.3474Z" fill="#5A5A5A"/>
<path d="M48.7073 22.8948H18.431C18.0618 22.8948 17.7627 22.5967 17.7627 22.229C17.7627 21.8614 18.0618 21.5632 18.431 21.5632H48.7073C49.0764 21.5632 49.3756 21.8614 49.3756 22.229C49.3756 22.5967 49.0764 22.8948 48.7073 22.8948Z" fill="#5A5A5A"/>
<path d="M48.7073 44.9778H18.431C18.0618 44.9778 17.7627 44.6797 17.7627 44.312C17.7627 43.9444 18.0618 43.6462 18.431 43.6462H48.7073C49.0764 43.6462 49.3756 43.9444 49.3756 44.312C49.3756 44.6797 49.0764 44.9778 48.7073 44.9778Z" fill="#5A5A5A"/>
<path d="M20.639 40.979H18.431C18.0618 40.979 17.7627 40.6809 17.7627 40.3132C17.7627 39.9456 18.0618 39.6475 18.431 39.6475H20.639C21.0082 39.6475 21.3073 39.9456 21.3073 40.3132C21.3073 40.6809 21.0082 40.979 20.639 40.979Z" fill="#5A5A5A"/>
<path d="M34.8104 46.2429H18.4597C18.1107 46.2429 17.799 46.4971 17.7658 46.8432C17.7278 47.2403 18.0402 47.5745 18.4309 47.5745H34.8104C35.1794 47.5745 35.4786 47.2764 35.4786 46.9087C35.4786 46.5411 35.1794 46.2429 34.8104 46.2429Z" fill="#5A5A5A"/>
<path d="M44.6662 46.2429H38.2161C37.8471 46.2429 37.5479 46.5411 37.5479 46.9087C37.5479 47.2764 37.8471 47.5745 38.2161 47.5745H44.695C45.0858 47.5745 45.3981 47.2403 45.36 46.8432C45.327 46.4971 45.0153 46.2429 44.6662 46.2429Z" fill="#5A5A5A"/>
<path d="M48.7073 50.1712H18.431C18.0618 50.1712 17.7627 49.873 17.7627 49.5054C17.7627 49.1377 18.0618 48.8396 18.431 48.8396H48.7073C49.0764 48.8396 49.3756 49.1377 49.3756 49.5054C49.3756 49.873 49.0764 50.1712 48.7073 50.1712Z" fill="#5A5A5A"/>
<path d="M59.7335 7.76172C60.8888 7.76172 61.8254 8.69459 61.8254 9.8454V44.0416C61.8254 44.5484 61.7037 45.048 61.4705 45.4985L60.3275 47.7071C60.0786 48.1879 59.3884 48.1879 59.1395 47.7071L57.9965 45.4985C57.7634 45.048 57.6416 44.5484 57.6416 44.0416V9.8454C57.6416 8.69459 58.5781 7.76172 59.7335 7.76172Z" fill="white"/>
<path d="M57.6416 39.3455H61.8252V41.2246H57.6416V39.3455Z" fill="#D4EBFF"/>
<path d="M61.8254 12.4902V9.8454C61.8254 8.69459 60.8888 7.76172 59.7335 7.76172C58.5781 7.76172 57.6416 8.69459 57.6416 9.8454V12.4902H61.8254Z" fill="#D4EBFF"/>
<path fill-rule="evenodd" clip-rule="evenodd" d="M59.7377 48.7334C59.235 48.7334 58.7799 48.457 58.5496 48.0121L57.4066 45.8035C57.1259 45.2613 56.9775 44.6519 56.9775 44.0416V26.5981L56.9777 9.84541C56.9777 8.32941 58.2159 7.09619 59.7379 7.09619C61.2598 7.09619 62.4979 8.32955 62.4979 9.84541V44.0415C62.4979 44.6518 62.3495 45.261 62.0689 45.8034L60.9258 48.012C60.6954 48.4569 60.2403 48.7334 59.7377 48.7334ZM58.3141 44.0415V26.5981L58.3143 9.84541C58.3143 9.06352 58.9529 8.42753 59.7379 8.42753C60.5227 8.42753 61.1613 9.06352 61.1613 9.84541V44.0415C61.1613 44.4405 61.0643 44.8388 60.8808 45.1934L59.7377 47.4019L58.5947 45.1934C58.4112 44.8388 58.3141 44.4405 58.3141 44.0415Z" fill="#3A85F4"/>
<path d="M33.5442 55.224C33.367 55.224 33.197 55.154 33.0716 55.029L31.768 53.7308C31.507 53.4709 31.507 53.0494 31.768 52.7895C32.0291 52.5295 32.4521 52.5295 32.7131 52.7895L33.5441 53.617L34.3747 52.7896C34.6356 52.5296 35.0589 52.5297 35.3198 52.7895C35.5808 53.0495 35.5808 53.471 35.3198 53.7309L34.0167 55.029C33.8915 55.1539 33.7214 55.224 33.5442 55.224Z" fill="#3A85F4"/>
<defs>
<linearGradient id="paint0_linear_73_8698" x1="0.536179" y1="34.8128" x2="67.8294" y2="34.8128" gradientUnits="userSpaceOnUse">
<stop stop-color="#70BEFE" stop-opacity="0"/>
<stop offset="1" stop-color="#76C1FE"/>
</linearGradient>
</defs>
</svg>
