<svg width="16" height="19" viewBox="0 0 16 19" fill="none" xmlns="http://www.w3.org/2000/svg">
<path d="M7.61928 17.3882L7.72868 18.1302L7.61928 17.3882ZM4.42578 17.3891L4.81744 16.7495L4.42578 17.3891ZM3.93519 16.9655L3.35955 17.4463L3.93519 16.9655ZM9.87486 17.0556L9.98426 17.7976L9.87486 17.0556ZM14.2704 15.6704L14.8381 16.1605L14.2704 15.6704ZM14.2704 3.32959L13.7027 3.81971L14.2704 3.32959ZM7.67629 2.37829L9.76546 2.68634L9.98427 1.20238L7.8951 0.894336L7.67629 2.37829ZM14.2496 7.88018V11.1198H15.7496V7.88018H14.2496ZM9.76545 16.3137L7.50988 16.6462L7.72868 18.1302L9.98426 17.7976L9.76545 16.3137ZM7.50988 16.6462C6.63362 16.7755 6.04028 16.8617 5.5872 16.876C5.1472 16.8898 4.94801 16.8294 4.81744 16.7495L4.03412 18.0287C4.52214 18.3275 5.06139 18.3933 5.63435 18.3753C6.19422 18.3576 6.88833 18.2541 7.72868 18.1302L7.50988 16.6462ZM2.72021 13.8061C2.72021 14.6555 2.71904 15.3573 2.78329 15.9138C2.84904 16.4832 2.99272 17.0071 3.35955 17.4463L4.51082 16.4848C4.41268 16.3673 4.32388 16.179 4.27339 15.7417C4.22139 15.2914 4.22021 14.6918 4.22021 13.8061H2.72021ZM4.81744 16.7495C4.70152 16.6785 4.59796 16.5891 4.51082 16.4848L3.35955 17.4463C3.55125 17.6758 3.77909 17.8725 4.03412 18.0287L4.81744 16.7495ZM14.2496 11.1198C14.2496 12.3746 14.2482 13.2456 14.1644 13.9111C14.0831 14.5557 13.9341 14.9123 13.7027 15.1803L14.8381 16.1605C15.336 15.5839 15.5515 14.9006 15.6526 14.0987C15.751 13.3177 15.7496 12.3357 15.7496 11.1198H14.2496ZM9.98426 17.7976C11.1871 17.6203 12.1588 17.4784 12.9171 17.2671C13.6957 17.0501 14.3402 16.7372 14.8381 16.1605L13.7027 15.1803C13.4714 15.4482 13.1403 15.6477 12.5144 15.8221C11.8683 16.0022 11.0068 16.1306 9.76545 16.3137L9.98426 17.7976ZM9.76546 2.68634C11.0068 2.86938 11.8683 2.9978 12.5144 3.17786C13.1403 3.35225 13.4714 3.55176 13.7027 3.81971L14.8381 2.83946C14.3402 2.26278 13.6957 1.94987 12.9171 1.73291C12.1588 1.52161 11.1871 1.37974 9.98427 1.20238L9.76546 2.68634ZM15.7496 7.88018C15.7496 6.66435 15.751 5.68232 15.6526 4.90134C15.5515 4.09944 15.336 3.41614 14.8381 2.83946L13.7027 3.81971C13.9341 4.08767 14.0831 4.44434 14.1644 5.08891C14.2482 5.75441 14.2496 6.62537 14.2496 7.88018H15.7496ZM7.8951 0.894336C6.97746 0.759031 6.21964 0.645884 5.61144 0.632724C4.98743 0.619222 4.40374 0.705437 3.89079 1.06532L4.75229 2.29325C4.89156 2.19554 5.10263 2.12207 5.57899 2.13237C6.07116 2.14302 6.71931 2.23718 7.67629 2.37829L7.8951 0.894336ZM4.22021 5.36214C4.22021 4.39481 4.22161 3.73986 4.28286 3.2514C4.34216 2.77863 4.44564 2.58053 4.56261 2.45701L3.47349 1.4256C3.04263 1.88057 2.87219 2.44544 2.79452 3.06474C2.71882 3.66836 2.72021 4.43458 2.72021 5.36214H4.22021ZM3.89079 1.06532C3.73997 1.17113 3.60017 1.29183 3.47349 1.4256L4.56261 2.45701C4.62019 2.39621 4.68374 2.34135 4.75229 2.29325L3.89079 1.06532Z" fill="#3A85F4"/>
<path d="M7.66667 6L11 9.5M11 9.5L7.66667 13M11 9.5H1" stroke="#3A85F4" stroke-width="1.5" stroke-linecap="round" stroke-linejoin="round"/>
</svg>
