<svg width="67" height="66" viewBox="0 0 67 66" fill="none" xmlns="http://www.w3.org/2000/svg">
<g filter="url(#filter0_d_115_4427)">
<rect x="15.2344" y="10" width="36" height="36" rx="4" fill="white"/>
</g>
<path d="M26.2939 27.9656C26.2939 26.6775 26.6489 25.4708 27.2654 24.4375V20.0547H22.8826C21.1431 22.3138 20.2002 25.0672 20.2002 27.9656C20.2002 30.8641 21.1431 33.6174 22.8826 35.8766H27.2654V31.4938C26.6489 30.4605 26.2939 29.2538 26.2939 27.9656Z" fill="#FBBD00"/>
<path d="M33.2002 34.8721L30.1533 37.919L33.2002 40.9658C36.0987 40.9658 38.852 40.0229 41.1112 38.2834V33.9053H36.733C35.6907 34.5241 34.4789 34.8721 33.2002 34.8721Z" fill="#0F9D58"/>
<path d="M27.2656 31.4932L22.8828 35.876C23.2272 36.3233 23.6022 36.7516 24.008 37.1575C26.4634 39.6128 29.728 40.965 33.2004 40.965V34.8713C30.6804 34.8713 28.4718 33.5144 27.2656 31.4932Z" fill="#31AA52"/>
<path d="M46.2002 27.966C46.2002 27.1751 46.1286 26.3827 45.9873 25.6109L45.873 24.9863H33.2002V31.0801H39.3677C38.7688 32.2715 37.8479 33.2435 36.7329 33.9054L41.1111 38.2836C41.5584 37.9392 41.9867 37.5642 42.3926 37.1584C44.8479 34.703 46.2002 31.4384 46.2002 27.966Z" fill="#3C79E6"/>
<path d="M38.0837 23.0823L38.6223 23.6209L42.9312 19.312L42.3926 18.7734C39.9372 16.3181 36.6727 14.9658 33.2002 14.9658L30.1533 18.0127L33.2002 21.0596C35.0449 21.0596 36.7792 21.7779 38.0837 23.0823Z" fill="#CF2D48"/>
<path d="M33.2004 21.0596V14.9658C29.728 14.9658 26.4634 16.3181 24.008 18.7734C23.6022 19.1792 23.2272 19.6075 22.8828 20.0549L27.2656 24.4377C28.4718 22.4164 30.6805 21.0596 33.2004 21.0596Z" fill="#EB4132"/>
<defs>
<filter id="filter0_d_115_4427" x="0.234375" y="0" width="66" height="66" filterUnits="userSpaceOnUse" color-interpolation-filters="sRGB">
<feFlood flood-opacity="0" result="BackgroundImageFix"/>
<feColorMatrix in="SourceAlpha" type="matrix" values="0 0 0 0 0 0 0 0 0 0 0 0 0 0 0 0 0 0 127 0" result="hardAlpha"/>
<feOffset dy="5"/>
<feGaussianBlur stdDeviation="7.5"/>
<feColorMatrix type="matrix" values="0 0 0 0 0 0 0 0 0 0 0 0 0 0 0 0 0 0 0.06 0"/>
<feBlend mode="normal" in2="BackgroundImageFix" result="effect1_dropShadow_115_4427"/>
<feBlend mode="normal" in="SourceGraphic" in2="effect1_dropShadow_115_4427" result="shape"/>
</filter>
</defs>
</svg>
