<svg width="20" height="12" viewBox="0 0 20 12" fill="none" xmlns="http://www.w3.org/2000/svg">
<path d="M19.3906 5.49609C16.8945 2.42188 13.5586 0.726562 10 0.726562C6.44141 0.726562 3.10547 2.42188 0.609375 5.49609C0.371094 5.78906 0.371094 6.20703 0.609375 6.5C3.10547 9.57812 6.44141 11.2734 10 11.2734C13.5586 11.2734 16.8945 9.57812 19.3906 6.50391C19.6289 6.21094 19.6289 5.78906 19.3906 5.49609ZM10 8.61328C8.55859 8.61328 7.38672 7.44141 7.38672 6C7.38672 4.55859 8.55859 3.38672 10 3.38672C11.4414 3.38672 12.6133 4.55859 12.6133 6C12.6133 7.44141 11.4414 8.61328 10 8.61328ZM2.27344 6C3.75 4.35156 5.51172 3.22266 7.41016 2.68359C6.42578 3.45313 5.78906 4.65234 5.78906 6C5.78906 7.34375 6.42188 8.54297 7.41016 9.31641C5.51172 8.77734 3.75391 7.64844 2.27344 6ZM12.5898 9.31641C13.5742 8.54688 14.2109 7.34766 14.2109 6C14.2109 4.65625 13.5781 3.45703 12.5898 2.68359C14.4883 3.22266 16.25 4.35156 17.7266 6C16.2461 7.64844 14.4883 8.77734 12.5898 9.31641Z" fill="#CCD2E3"/>
</svg>
