<svg width="46" height="47" viewBox="0 0 46 47" fill="none" xmlns="http://www.w3.org/2000/svg">
<ellipse cx="23" cy="22.9663" rx="23" ry="22.9663" fill="#EBF3FF"/>
<path fill-rule="evenodd" clip-rule="evenodd" d="M16.3395 33.3035C25.6464 29.0187 38.6221 37.3967 38.6221 37.3967V38.9282C32.7442 45.9349 19.1001 49.049 10.2851 42.1004C10.8903 39.5182 11.4569 37.7705 11.9536 37.224C12.0039 37.1688 12.0549 37.1125 12.1068 37.0554C13.3048 35.7353 14.9181 33.9577 16.3395 33.3035Z" fill="url(#paint0_linear_159_236)"/>
<path fill-rule="evenodd" clip-rule="evenodd" d="M5.68682 38.0811C10.0592 35.3591 15.6025 33.0906 15.6025 33.0906L14.0341 44.3776C9.74595 42.8205 6.65003 39.2717 5.68682 38.0811Z" fill="url(#paint1_linear_159_236)"/>
<path d="M18.326 37.1872C21.1936 37.7487 25.4062 37.1501 28.4902 35.1201C27.4233 32.6839 26.6944 30.1136 26.3239 27.4805C26.3121 27.3902 26.3033 27.3029 26.2944 27.2182C26.2167 26.6381 26.2048 26.0511 26.2588 25.4683H18.845C18.845 25.4683 16.8181 26.3937 16.8181 27.0331C16.8181 27.3754 16.8151 27.7027 16.8092 28.0148C16.7943 28.8662 16.7602 29.6095 16.7157 30.2477C16.667 31.2745 16.5401 32.2961 16.3362 33.3037C16.3362 33.3037 15.4304 36.62 18.326 37.1872Z" fill="#FFDAC3"/>
<path d="M16.7151 30.2483C22.3317 31.332 25.5923 28.267 26.3233 27.481C26.4271 27.3684 26.4805 27.3019 26.4805 27.3019C26.4213 27.272 26.3588 27.2456 26.2937 27.2188C24.2031 26.3735 19.4582 27.0457 16.8086 28.0153C16.7936 28.8667 16.7596 29.61 16.7151 30.2483Z" fill="#F7C09B"/>
<path d="M28.159 24.2521C27.1554 29.646 20.1853 29.4688 17.1732 29.1298C16.3255 29.0357 15.7921 28.9276 15.7921 28.9276C14.8363 28.6726 14.3031 27.1694 14.0552 25.2002C13.5634 21.3035 14.1848 15.5829 14.8439 14.12C15.8361 11.9184 17.7051 9.53735 24.7243 11.2552C31.7447 12.9746 29.4468 17.341 28.159 24.2521Z" fill="#FFDAC3"/>
<path d="M14.5849 11.1094C15.5443 9.78321 17.5784 8.16266 19.4259 7.16467C23.3949 5.02057 28.4747 7.23216 28.4959 7.24141C34.2292 9.75849 35.7263 14.1385 32.6867 20.9614C29.4725 28.1763 26.412 27.3646 26.412 27.3646C26.412 27.3646 27.0616 26.961 27.0029 24.7122C26.9995 24.5845 26.9944 24.4775 26.9886 24.3857C26.97 24.1579 27.0033 23.9288 27.0862 23.7157C27.169 23.5026 27.2991 23.311 27.4667 23.1554C28.1788 22.5209 28.526 20.6013 27.9295 20.0669C27.2101 19.4223 26.1993 20.2052 25.8763 20.8076C25.815 20.9116 25.7328 21.0018 25.6349 21.0726C25.5371 21.1435 25.4257 21.1935 25.3077 21.2195C25.1897 21.2455 25.0676 21.247 24.9489 21.2239C24.8303 21.2007 24.7178 21.1534 24.6182 21.085C22.8337 19.9585 23.9928 17.7056 22.2878 16.327C20.5826 14.9489 17.1225 16.106 14.5647 15.0076C11.2163 13.7618 13.8619 12.1089 14.5849 11.1094Z" fill="url(#paint2_linear_159_236)"/>
<path fill-rule="evenodd" clip-rule="evenodd" d="M36.5326 34.7824C37.9209 35.3382 40.0635 36.2487 40.7705 37.5589C40.7705 37.5589 35.0843 45.5459 23.3894 45.9352C24.1194 43.3606 25.0158 38.4324 25.7844 36.4623C26.4871 34.6663 27.1588 33.3872 27.7178 33.1132H27.7193C27.7193 33.1132 29.2085 32.6966 30.6142 33.3941C32.4409 33.6863 36.1673 34.6362 36.5326 34.7824Z" fill="url(#paint3_linear_159_236)"/>
<path fill-rule="evenodd" clip-rule="evenodd" d="M30.6592 33.4236C29.5224 31.795 27.1581 31.3823 27.1581 31.3823C25.8047 32.5568 24.0279 41.2714 22.9996 45.9347H23.3894C25.8715 41.5033 30.6592 33.4236 30.6592 33.4236Z" fill="white"/>
<path fill-rule="evenodd" clip-rule="evenodd" d="M14.0997 34.1439C14.4223 33.3344 15.8539 31.8698 16.6006 31.5886C16.5825 32.1684 16.4944 32.7439 16.3383 33.3027C15.6697 35.901 14.7577 41.2489 14.0317 44.3764L14.0997 34.1439Z" fill="white"/>
<defs>
<linearGradient id="paint0_linear_159_236" x1="14.5396" y1="41.4311" x2="23.5999" y2="43.2578" gradientUnits="userSpaceOnUse">
<stop stop-color="#4498E8"/>
<stop offset="1" stop-color="#5BB2FB"/>
</linearGradient>
<linearGradient id="paint1_linear_159_236" x1="10.6447" y1="33.0906" x2="10.6447" y2="44.3776" gradientUnits="userSpaceOnUse">
<stop stop-color="#CFE6E6"/>
<stop offset="1" stop-color="white"/>
</linearGradient>
<linearGradient id="paint2_linear_159_236" x1="18.4125" y1="8.69583" x2="29.7379" y2="26.3781" gradientUnits="userSpaceOnUse">
<stop stop-color="#626262"/>
<stop offset="1" stop-color="#333333"/>
</linearGradient>
<linearGradient id="paint3_linear_159_236" x1="32.08" y1="32.9897" x2="32.08" y2="45.9352" gradientUnits="userSpaceOnUse">
<stop stop-color="#CFE6E6"/>
<stop offset="1" stop-color="white"/>
</linearGradient>
</defs>
</svg>
