<svg width="66" height="66" viewBox="0 0 66 66" fill="none" xmlns="http://www.w3.org/2000/svg">
<g filter="url(#filter0_d_115_4438)">
<rect x="15" y="10" width="36" height="36" rx="4" fill="white"/>
</g>
<path d="M24.67 17.2109C25.352 17.2109 25.886 17.4259 26.274 17.8539C26.662 18.2819 26.87 18.8219 26.898 19.4689C26.898 20.1079 26.68 20.6469 26.241 21.0849C25.802 21.5219 25.202 21.7409 24.443 21.7409H24.416C23.675 21.7409 23.088 21.5219 22.651 21.0849C22.219 20.6469 22 20.1079 22 19.4689C22 18.8119 22.238 18.2719 22.718 17.8469C23.198 17.4229 23.85 17.2109 24.67 17.2109ZM22.287 23.5349H26.97V36.6909H22.287V23.5349ZM43.903 29.1479V36.6909H39.221V29.6549C39.221 28.7599 39.037 28.0429 38.671 27.4969C38.307 26.9559 37.698 26.6849 36.838 26.6849C36.183 26.6849 35.657 26.8509 35.265 27.1849C34.872 27.5169 34.587 27.8839 34.415 28.2869C34.359 28.4329 34.324 28.5939 34.305 28.7729C34.287 28.9489 34.279 29.1399 34.279 29.3409V36.6919H29.568C29.588 34.4659 29.599 32.4239 29.599 30.5719V28.2329V26.1079C29.599 25.4609 29.592 24.9089 29.581 24.4509C29.575 23.9969 29.568 23.6899 29.568 23.5349H34.279V25.3979L34.253 25.4519H34.279V25.3979C34.425 25.1689 34.612 24.9299 34.84 24.6789C35.071 24.4289 35.347 24.1949 35.683 23.9789C36.016 23.7649 36.417 23.5889 36.887 23.4459C37.36 23.3049 37.898 23.2349 38.511 23.2349C39.273 23.2349 39.985 23.3509 40.649 23.5839C41.311 23.8169 41.88 24.1819 42.364 24.6799C42.845 25.1749 43.222 25.7909 43.496 26.5269C43.769 27.2609 43.903 28.1349 43.903 29.1479Z" fill="#007BC4"/>
<defs>
<filter id="filter0_d_115_4438" x="0" y="0" width="66" height="66" filterUnits="userSpaceOnUse" color-interpolation-filters="sRGB">
<feFlood flood-opacity="0" result="BackgroundImageFix"/>
<feColorMatrix in="SourceAlpha" type="matrix" values="0 0 0 0 0 0 0 0 0 0 0 0 0 0 0 0 0 0 127 0" result="hardAlpha"/>
<feOffset dy="5"/>
<feGaussianBlur stdDeviation="7.5"/>
<feColorMatrix type="matrix" values="0 0 0 0 0 0 0 0 0 0 0 0 0 0 0 0 0 0 0.06 0"/>
<feBlend mode="normal" in2="BackgroundImageFix" result="effect1_dropShadow_115_4438"/>
<feBlend mode="normal" in="SourceGraphic" in2="effect1_dropShadow_115_4438" result="shape"/>
</filter>
</defs>
</svg>
