<svg width="13" height="14" viewBox="0 0 13 14" fill="none" xmlns="http://www.w3.org/2000/svg">
<path d="M0.716172 13.5C0.51607 13.4997 0.325314 13.4153 0.190445 13.2674C0.0530887 13.1207 -0.0151639 12.9224 0.00283751 12.7223L0.177604 10.8L8.25113 2.72713L10.7742 5.25017L2.70281 13.3223L0.781086 13.4971C0.758972 13.4993 0.736859 13.5 0.716172 13.5ZM11.2778 4.7457L8.75545 2.22266L10.2684 0.709269C10.4022 0.575284 10.5838 0.5 10.7731 0.5C10.9624 0.5 11.144 0.575284 11.2778 0.709269L12.7908 2.22266C12.9247 2.3565 13 2.53811 13 2.72749C13 2.91686 12.9247 3.09847 12.7908 3.23231L11.2785 4.74499L11.2778 4.7457Z" fill="#B0BFDB"/>
</svg>
