<svg width="19" height="20" viewBox="0 0 19 20" fill="none" xmlns="http://www.w3.org/2000/svg">
<path d="M18.8226 10.4961C16.3446 7.42188 13.0328 5.72656 9.5 5.72656C5.96719 5.72656 2.65542 7.42188 0.177416 10.4961C-0.0591387 10.7891 -0.0591387 11.207 0.177416 11.5C2.65542 14.5781 5.96719 16.2734 9.5 16.2734C13.0328 16.2734 16.3446 14.5781 18.8226 11.5039C19.0591 11.2109 19.0591 10.7891 18.8226 10.4961ZM9.5 13.6133C8.06904 13.6133 6.90565 12.4414 6.90565 11C6.90565 9.55859 8.06904 8.38672 9.5 8.38672C10.931 8.38672 12.0943 9.55859 12.0943 11C12.0943 12.4414 10.931 13.6133 9.5 13.6133ZM1.82942 11C3.29529 9.35156 5.04424 8.22266 6.92892 7.68359C5.95168 8.45313 5.31957 9.65234 5.31957 11C5.31957 12.3438 5.9478 13.543 6.92892 14.3164C5.04424 13.7773 3.29916 12.6484 1.82942 11ZM12.0711 14.3164C13.0483 13.5469 13.6804 12.3477 13.6804 11C13.6804 9.65625 13.0522 8.45703 12.0711 7.68359C13.9558 8.22266 15.7047 9.35156 17.1706 11C15.7008 12.6484 13.9558 13.7773 12.0711 14.3164Z" fill="#3A85F4"/>
<path d="M1.55859 2L17.4427 18" stroke="#F2F7FF" stroke-width="4"/>
<path d="M3.54395 4L16.4498 17" stroke="#3A85F4" stroke-width="2"/>
</svg>
