<svg width="13" height="15" viewBox="0 0 13 15" fill="none" xmlns="http://www.w3.org/2000/svg">
<path d="M10.1563 3.59467H2.88889V5.01479H10.1563V3.59467Z" fill="#B0BFDB"/>
<path d="M2.88889 6.56805H10.1563V7.98817H2.88889V6.56805Z" fill="#B0BFDB"/>
<path d="M10.1562 9.76331H2.88889V11.1834H10.1562V9.76331Z" fill="#B0BFDB"/>
<path d="M0 1.42012V13C0 14.1046 0.895431 15 2 15H3.25C3.65625 15 4.02071 14.9994 4.33333 15H11.5556C12.3533 15 13 14.3642 13 13.5799V1.42012C13 0.635809 12.3533 0 11.5556 0H1.44444C0.6467 0 0 0.635809 0 1.42012ZM1.44444 13.5799V1.42012H11.5556V13.5799H3.85233C3.53966 13.5791 3.17351 13.5799 2.88889 13.5799H1.44444Z" fill="#B0BFDB"/>
</svg>
