<svg width="17" height="17" viewBox="0 0 17 17" fill="none" xmlns="http://www.w3.org/2000/svg">
<circle cx="8.5" cy="8.5" r="8" stroke="#C5D5EE"/>
<path d="M8.64845 4.7865C8.656 4.47672 8.76934 4.23117 8.98845 4.04983C9.20756 3.8685 9.47956 3.77783 9.80445 3.77783C10.0689 3.77783 10.2729 3.84205 10.4164 3.9705C10.5676 4.09139 10.6431 4.26139 10.6431 4.4805C10.6431 4.78272 10.5298 5.03206 10.3031 5.2285C10.0764 5.42494 9.79689 5.52317 9.46445 5.52317C9.19245 5.52317 8.98467 5.45894 8.84111 5.3305C8.69756 5.1945 8.63334 5.01317 8.64845 4.7865ZM8.21778 7.6425C8.27067 7.46872 8.29711 7.35539 8.29711 7.3025C8.29711 7.15139 8.22911 7.07583 8.09311 7.07583C7.95711 7.07583 7.83245 7.14761 7.71911 7.29117C7.60578 7.42717 7.48867 7.65383 7.36778 7.97117L7.14111 8.54917H6.92578L7.24311 7.68783C7.52267 6.90961 8.04778 6.5205 8.81845 6.5205C9.166 6.5205 9.41911 6.60739 9.57778 6.78117C9.73645 6.94739 9.81578 7.1665 9.81578 7.4385C9.81578 7.65761 9.77423 7.8805 9.69111 8.10717L8.50111 11.5752C8.45578 11.7112 8.43311 11.8207 8.43311 11.9038C8.43311 12.0625 8.50867 12.1418 8.65978 12.1418C8.77311 12.1418 8.88645 12.0776 8.99978 11.9492C9.12067 11.8207 9.24534 11.5865 9.37378 11.2465L9.57778 10.7025H9.79311L9.49845 11.5298C9.234 12.3081 8.724 12.6972 7.96845 12.6972C7.28089 12.6972 6.93711 12.3836 6.93711 11.7565C6.93711 11.5072 6.99378 11.2201 7.10711 10.8952L8.21778 7.6425Z" fill="#B2C2DC"/>
</svg>
