<svg width="19" height="20" viewBox="0 0 19 20" fill="none" xmlns="http://www.w3.org/2000/svg">
<path d="M3.3 9.99995C3.3 5.85782 6.65787 2.49995 10.8 2.49995C14.9421 2.49995 18.3 5.85782 18.3 9.99995C18.3 14.1421 14.9421 17.5 10.8 17.5C6.65787 17.5 3.3 14.1421 3.3 9.99995Z" fill="#F3F3F3" stroke="#F3F3F3" stroke-width="0.6"/>
<path d="M2.63604 16.364C3.89471 17.6226 5.49836 18.4798 7.24419 18.8271C8.99002 19.1743 10.7996 18.9961 12.4442 18.3149C14.0887 17.6337 15.4943 16.4802 16.4832 15.0001C17.4722 13.5201 18 11.78 18 10C18 8.21997 17.4722 6.47991 16.4832 4.99987C15.4943 3.51983 14.0887 2.36627 12.4442 1.68508C10.7996 1.0039 8.99002 0.825666 7.24419 1.17293C5.49836 1.5202 3.89471 2.37737 2.63604 3.63604" stroke="#3A85F4" stroke-width="1.2"/>
<path d="M11.7002 10L12.1687 9.62518L12.4686 10L12.1687 10.3748L11.7002 10ZM0.900195 10.6C0.568824 10.6 0.300195 10.3314 0.300195 10C0.300195 9.66863 0.568824 9.4 0.900195 9.4V10.6ZM8.56872 5.12518L12.1687 9.62518L11.2317 10.3748L7.63167 5.87482L8.56872 5.12518ZM12.1687 10.3748L8.56872 14.8748L7.63167 14.1252L11.2317 9.62518L12.1687 10.3748ZM11.7002 10.6H0.900195V9.4H11.7002V10.6Z" fill="#3A85F4"/>
</svg>
