<svg width="17" height="18" viewBox="0 0 17 18" fill="none" xmlns="http://www.w3.org/2000/svg">
<path d="M14.1 8.9999C14.1 5.2996 11.1003 2.2999 7.4 2.2999C3.69969 2.2999 0.7 5.2996 0.7 8.9999C0.7 12.7002 3.69969 15.6999 7.4 15.6999C11.1003 15.6999 14.1 12.7002 14.1 8.9999Z" fill="#F3F3F3" stroke="#F3F3F3" stroke-width="0.6"/>
<path d="M14.6569 14.6569C13.538 15.7757 12.1126 16.5376 10.5607 16.8463C9.00887 17.155 7.40034 16.9965 5.93853 16.391C4.47672 15.7855 3.22729 14.7602 2.34824 13.4446C1.46919 12.129 1 10.5823 1 9C1 7.41775 1.46919 5.87103 2.34824 4.55544C3.22729 3.23985 4.47672 2.21447 5.93853 1.60896C7.40034 1.00346 9.00887 0.845036 10.5607 1.15372C12.1126 1.4624 13.538 2.22433 14.6569 3.34314" stroke="#3A85F4" stroke-width="1.2"/>
<path d="M6.59961 9L6.13109 8.62518L5.83123 9L6.13109 9.37482L6.59961 9ZM16.1996 9.6C16.531 9.6 16.7996 9.33137 16.7996 9C16.7996 8.66863 16.531 8.4 16.1996 8.4V9.6ZM9.33109 4.62518L6.13109 8.62518L7.06813 9.37482L10.2681 5.37482L9.33109 4.62518ZM6.13109 9.37482L9.33109 13.3748L10.2681 12.6252L7.06813 8.62518L6.13109 9.37482ZM6.59961 9.6H16.1996V8.4H6.59961V9.6Z" fill="#3A85F4"/>
</svg>
