<svg width="17" height="17" viewBox="0 0 17 17" fill="none" xmlns="http://www.w3.org/2000/svg">
<path d="M1.86242 8.85751L2.38156 9.3988L2.38732 9.39328L2.39295 9.38763L1.86242 8.85751ZM1.43169 9.27062L0.912544 8.72933L0.906787 8.73486L0.901148 8.7405L1.43169 9.27062ZM1.43169 11.3568L1.96223 10.8266L1.43169 11.3568ZM5.63959 15.568L6.17017 15.0379L6.17013 15.0379L5.63959 15.568ZM7.72408 15.568L7.19549 15.0359L7.19355 15.0379L7.72408 15.568ZM10.1916 13.1166L10.7202 13.6486L10.7221 13.6467L10.1916 13.1166ZM15.5241 7.7798L14.9936 7.24968L15.5241 7.7798ZM15.9929 6.47878L16.7396 6.40903L16.7396 6.40898L15.9929 6.47878ZM15.6957 3.2994L14.9489 3.3692L14.9489 3.36921L15.6957 3.2994ZM15.6254 2.54757L16.3721 2.47777L16.3721 2.47772L15.6254 2.54757ZM14.389 1.32404L14.3275 2.07151L14.3275 2.07151L14.389 1.32404ZM10.5198 1.00554L10.4581 1.753L10.4583 1.75301L10.5198 1.00554ZM9.23801 1.47624L9.76854 2.00637L9.76859 2.00633L9.23801 1.47624ZM7.08718 3.62868L6.55665 3.09854L6.55665 3.09855L7.08718 3.62868ZM7.57711 4.10069L8.1068 4.63165L8.10763 4.63082L7.57711 4.10069ZM9.7188 1.9574L10.2493 2.48754L10.2495 2.4874L9.7188 1.9574ZM10.4641 1.68374L10.5256 0.936269L10.5253 0.936244L10.4641 1.68374ZM14.3332 2.00224L14.3948 1.25477L14.3948 1.25476L14.3332 2.00224ZM14.9484 2.61097L15.6951 2.54117L15.6951 2.54108L14.9484 2.61097ZM15.0127 3.2994L14.266 3.3692L14.266 3.36921L15.0127 3.2994ZM15.3158 6.54209L14.5691 6.6119L14.5691 6.61193L15.3158 6.54209ZM15.0433 7.29855L15.5732 7.82928L15.5738 7.82867L15.0433 7.29855ZM7.2433 15.0868L6.71337 14.556L6.71276 14.5566L7.2433 15.0868ZM6.12042 15.0868L5.58988 15.6169L5.58992 15.6169L6.12042 15.0868ZM1.92401 10.8871L2.45455 10.3569L1.92401 10.8871ZM1.68531 10.4076L0.940132 10.4925L0.940145 10.4926L1.68531 10.4076ZM1.91251 9.75178L1.38282 9.22082L1.38198 9.22166L1.91251 9.75178ZM1.34327 8.31622L0.912544 8.72933L1.95083 9.81191L2.38156 9.3988L1.34327 8.31622ZM0.901148 8.7405C0.482164 9.15981 0.25 9.72096 0.25 10.3137H1.75C1.75 10.1184 1.82445 9.93862 1.96223 9.80074L0.901148 8.7405ZM0.25 10.3137C0.25 10.9064 0.482164 11.4676 0.901148 11.8869L1.96223 10.8266C1.82445 10.6888 1.75 10.509 1.75 10.3137H0.25ZM0.901148 11.8869L5.10905 16.0981L6.17013 15.0379L1.96223 10.8266L0.901148 11.8869ZM5.10901 16.0981C5.52807 16.5175 6.08909 16.75 6.68184 16.75V15.25C6.48714 15.25 6.30787 15.1757 6.17017 15.0379L5.10901 16.0981ZM6.68184 16.75C7.27464 16.75 7.83562 16.5174 8.25462 16.0981L7.19355 15.0379C7.05579 15.1757 6.87648 15.25 6.68184 15.25V16.75ZM8.25268 16.1L10.7202 13.6486L9.66297 12.5845L7.19549 15.0359L8.25268 16.1ZM10.7221 13.6467L16.0547 8.30992L14.9936 7.24968L9.66103 12.5864L10.7221 13.6467ZM16.0547 8.30992C16.5555 7.80868 16.8055 7.11454 16.7396 6.40903L15.2461 6.54853C15.2705 6.80997 15.1788 7.0643 14.9936 7.24968L16.0547 8.30992ZM16.7396 6.40898L16.4424 3.2296L14.9489 3.36921L15.2461 6.54859L16.7396 6.40898ZM16.4424 3.22961L16.3721 2.47777L14.8786 2.61737L14.9489 3.3692L16.4424 3.22961ZM16.3721 2.47772C16.277 1.46099 15.4686 0.660311 14.4505 0.57656L14.3275 2.07151C14.6197 2.09554 14.8512 2.32403 14.8787 2.61741L16.3721 2.47772ZM14.4505 0.576564L10.5813 0.258069L10.4583 1.75301L14.3275 2.07151L14.4505 0.576564ZM10.5815 0.258085C9.88494 0.200557 9.20118 0.451963 8.70744 0.946155L9.76859 2.00633C9.95098 1.82377 10.2016 1.73182 10.4581 1.753L10.5815 0.258085ZM8.70749 0.946109L6.55665 3.09854L7.61771 4.15881L9.76854 2.00637L8.70749 0.946109ZM8.10763 4.63082L10.2493 2.48754L9.18827 1.42727L7.04658 3.57056L8.10763 4.63082ZM10.2495 2.4874C10.2899 2.44691 10.3451 2.42651 10.4028 2.43124L10.5253 0.936244C10.0291 0.895599 9.54073 1.07437 9.18814 1.4274L10.2495 2.4874ZM10.4025 2.43121L14.2717 2.74971L14.3948 1.25476L10.5256 0.936269L10.4025 2.43121ZM14.2717 2.7497C14.2347 2.74666 14.205 2.71662 14.2016 2.68085L15.6951 2.54108C15.6307 1.85356 15.0837 1.31152 14.3948 1.25477L14.2717 2.7497ZM14.2016 2.68076L14.266 3.3692L15.7594 3.22961L15.6951 2.54117L14.2016 2.68076ZM14.266 3.36921L14.5691 6.6119L16.0626 6.47229L15.7594 3.2296L14.266 3.36921ZM14.5691 6.61193C14.5746 6.67091 14.5545 6.72669 14.5128 6.76842L15.5738 7.82867C15.9311 7.47116 16.1096 6.97555 16.0626 6.47226L14.5691 6.61193ZM14.5134 6.76782L6.71337 14.556L7.77323 15.6175L15.5732 7.82928L14.5134 6.76782ZM6.71276 14.5566C6.69567 14.5738 6.66811 14.5738 6.65092 14.5566L5.58992 15.6169C6.19293 16.2203 7.17082 16.2204 7.77384 15.6169L6.71276 14.5566ZM6.65096 14.5566L2.45455 10.3569L1.39347 11.4172L5.58988 15.6169L6.65096 14.5566ZM2.45455 10.3569C2.44344 10.3458 2.43675 10.3356 2.43324 10.3287C2.42989 10.3221 2.43018 10.32 2.43048 10.3226L0.940145 10.4926C0.982304 10.8622 1.15857 11.1821 1.39347 11.4172L2.45455 10.3569ZM2.4305 10.3227C2.42904 10.3099 2.43082 10.3023 2.43227 10.2981C2.43374 10.2939 2.43652 10.2884 2.44305 10.2819L1.38198 9.22166C1.04771 9.55619 0.886312 10.02 0.940132 10.4925L2.4305 10.3227ZM2.44221 10.2827L8.1068 4.63165L7.04741 3.56973L1.38282 9.22082L2.44221 10.2827ZM6.55665 3.09855L1.33188 8.32739L2.39295 9.38763L7.61772 4.1588L6.55665 3.09855Z" fill="#B0BFDB"/>
</svg>
