<svg width="15" height="15" viewBox="0 0 15 15" fill="none" xmlns="http://www.w3.org/2000/svg">
<path fill-rule="evenodd" clip-rule="evenodd" d="M7.5 9C9.15685 9 10.5 7.65685 10.5 6C10.5 4.34315 9.15685 3 7.5 3C5.84315 3 4.5 4.34315 4.5 6C4.5 7.65685 5.84315 9 7.5 9C7.5 9 9.15685 9 7.5 9ZM7.5 7.5C8.32843 7.5 9 6.82843 9 6C9 5.17157 8.32843 4.5 7.5 4.5C6.67157 4.5 6 5.17157 6 6C6 6.82843 6.67157 7.5 7.5 7.5C7.5 7.5 8.32843 7.5 7.5 7.5ZM11.9446 13.5418C13.7977 12.1762 15 9.97852 15 7.5C15 3.35786 11.6421 0 7.5 0C3.35786 0 0 3.35786 0 7.5C0 9.97852 1.20226 12.1762 3.05541 13.5418C3.0895 13.5669 3.12382 13.5917 3.15834 13.6163C3.49498 13.8557 3.85223 14.068 4.22691 14.25C5.21598 14.7305 6.32652 15 7.5 15C8.67348 15 9.78402 14.7305 10.7731 14.25C10.7932 14.2402 10.8133 14.2304 10.8333 14.2204C11.2243 14.0261 11.596 13.7987 11.9446 13.5418C11.9446 13.5418 13.7977 12.1762 11.9446 13.5418ZM11.4215 12.0412C12.6945 10.941 13.5 9.31457 13.5 7.5C13.5 4.18629 10.8137 1.5 7.5 1.5C4.18629 1.5 1.5 4.18629 1.5 7.5C1.5 9.31457 2.30551 10.941 3.57846 12.0412C4.3505 10.6735 5.8174 9.75 7.5 9.75C9.18259 9.75 10.6495 10.6735 11.4215 12.0412C11.4215 12.0412 12.6945 10.941 11.4215 12.0412ZM10.1675 12.8759C9.66906 11.9102 8.66163 11.25 7.5 11.25C6.33837 11.25 5.33094 11.9102 4.83249 12.8759C5.636 13.2754 6.54177 13.5 7.5 13.5C8.45823 13.5 9.36399 13.2754 10.1675 12.8759C10.1675 12.8759 9.66906 11.9102 10.1675 12.8759Z" fill="#3A85F4"/>
</svg>
