<svg width="13" height="12" viewBox="0 0 13 12" fill="none" xmlns="http://www.w3.org/2000/svg">
<mask id="mask0_257_1921" style="mask-type:alpha" maskUnits="userSpaceOnUse" x="0" y="0" width="13" height="12">
<path fill-rule="evenodd" clip-rule="evenodd" d="M0.548828 0.142578H12.1554V11.7491H0.548828V0.142578Z" fill="white"/>
</mask>
<g mask="url(#mask0_257_1921)">
<path fill-rule="evenodd" clip-rule="evenodd" d="M5.79018 7.17646L7.96696 10.708C8.0622 10.8628 8.21101 10.861 8.27113 10.8527C8.33125 10.8443 8.47589 10.8074 8.52827 10.6318L11.2503 1.43837C11.2979 1.27587 11.2104 1.16515 11.1711 1.12587C11.133 1.08658 11.0241 1.00265 10.8664 1.0473L1.66637 3.74134C1.49196 3.79254 1.45387 3.93896 1.44554 3.99908C1.4372 4.06039 1.43482 4.21218 1.58899 4.3092L5.16101 6.54313L8.31696 3.35384C8.49018 3.17884 8.77292 3.17706 8.94851 3.35027C9.12411 3.52349 9.1253 3.80682 8.95208 3.98182L5.79018 7.17646ZM8.22439 11.7494C7.8101 11.7494 7.43034 11.5387 7.20653 11.1768L4.8988 7.43218L1.11546 5.06611C0.707724 4.81075 0.494629 4.35599 0.5607 3.87801C0.626176 3.40003 0.954153 3.02027 1.41487 2.88515L10.6149 0.191106C11.0381 0.0672969 11.4917 0.184559 11.8036 0.495273C12.1155 0.808964 12.2315 1.2673 12.1053 1.6923L9.38332 10.8852C9.24701 11.3477 8.86606 11.6744 8.38927 11.7381C8.33332 11.7453 8.27915 11.7494 8.22439 11.7494V11.7494Z" fill="white"/>
</g>
</svg>
