<svg width="15" height="15" viewBox="0 0 15 15" fill="none" xmlns="http://www.w3.org/2000/svg">
<path d="M1.8667 12.0323L4.53337 9.89896L6.6667 12.0323L10.0005 8L13.5005 11.5" stroke="#3A85F4" stroke-width="1.5"/>
<path d="M0.75 7.5C0.75 3.77421 3.77421 0.75 7.5 0.75C11.2258 0.75 14.25 3.77421 14.25 7.5C14.25 11.2258 11.2258 14.25 7.5 14.25C3.77421 14.25 0.75 11.2258 0.75 7.5Z" stroke="#3A85F4" stroke-width="1.5"/>
<path fill-rule="evenodd" clip-rule="evenodd" d="M4.8501 4.66797C5.26431 4.66797 5.6001 5.00376 5.6001 5.41797C5.6001 5.83218 5.26431 6.16797 4.8501 6.16797C4.43588 6.16797 4.1001 5.83218 4.1001 5.41797C4.1001 5.00376 4.43588 4.66797 4.8501 4.66797Z" fill="#3A85F4"/>
</svg>
