<svg width="15" height="15" viewBox="0 0 15 15" fill="none" xmlns="http://www.w3.org/2000/svg">
<path fill-rule="evenodd" clip-rule="evenodd" d="M7.4925 0C3.3525 0 0 3.36 0 7.5C0 11.64 3.3525 15 7.4925 15C11.64 15 15 11.64 15 7.5C15 3.36 11.64 0 7.4925 0C7.4925 0 3.3525 0 7.4925 0ZM8.25 8.25V3.75H6.75V8.25H8.25ZM8.25 11.25V9.75H6.75V11.25H8.25ZM1.5 7.5C1.5 10.815 4.185 13.5 7.5 13.5C10.815 13.5 13.5 10.815 13.5 7.5C13.5 4.185 10.815 1.5 7.5 1.5C4.185 1.5 1.5 4.185 1.5 7.5C1.5 7.5 1.5 10.815 1.5 7.5Z" fill="#3A85F4"/>
</svg>
