<svg width="16" height="19" viewBox="0 0 16 19" fill="none" xmlns="http://www.w3.org/2000/svg">
<path d="M8.38121 17.3882L8.2718 18.1302L8.38121 17.3882ZM11.5747 17.3891L11.183 16.7495L11.5747 17.3891ZM12.0653 16.9655L12.6409 17.4463L12.0653 16.9655ZM6.12563 17.0556L6.01623 17.7976L6.12563 17.0556ZM1.73009 15.6704L1.16239 16.1605L1.73009 15.6704ZM1.73009 3.32959L2.29778 3.81971L1.73009 3.32959ZM8.32419 2.37829L6.23503 2.68634L6.01622 1.20238L8.10539 0.894336L8.32419 2.37829ZM1.75086 7.88018V11.1198H0.250861V7.88018H1.75086ZM6.23503 16.3137L8.49061 16.6462L8.2718 18.1302L6.01623 17.7976L6.23503 16.3137ZM8.49061 16.6462C9.36687 16.7755 9.96021 16.8617 10.4133 16.876C10.8533 16.8898 11.0525 16.8294 11.183 16.7495L11.9664 18.0287C11.4784 18.3275 10.9391 18.3933 10.3661 18.3753C9.80627 18.3576 9.11216 18.2541 8.2718 18.1302L8.49061 16.6462ZM13.2803 13.8061C13.2803 14.6555 13.2815 15.3573 13.2172 15.9138C13.1515 16.4832 13.0078 17.0071 12.6409 17.4463L11.4897 16.4848C11.5878 16.3673 11.6766 16.179 11.7271 15.7417C11.7791 15.2914 11.7803 14.6918 11.7803 13.8061H13.2803ZM11.183 16.7495C11.299 16.6785 11.4025 16.5891 11.4897 16.4848L12.6409 17.4463C12.4492 17.6758 12.2214 17.8725 11.9664 18.0287L11.183 16.7495ZM1.75086 11.1198C1.75086 12.3746 1.75225 13.2456 1.83613 13.9111C1.91737 14.5557 2.06644 14.9123 2.29778 15.1803L1.16239 16.1605C0.66451 15.5839 0.448969 14.9006 0.347901 14.0987C0.249471 13.3177 0.250861 12.3357 0.250861 11.1198H1.75086ZM6.01623 17.7976C4.8134 17.6203 3.84168 17.4784 3.08341 17.2671C2.30483 17.0501 1.66027 16.7372 1.16239 16.1605L2.29778 15.1803C2.52912 15.4482 2.86023 15.6477 3.48606 15.8221C4.13221 16.0022 4.99365 16.1306 6.23503 16.3137L6.01623 17.7976ZM6.23503 2.68634C4.99364 2.86938 4.13221 2.9978 3.48606 3.17786C2.86023 3.35225 2.52912 3.55176 2.29778 3.81971L1.16239 2.83946C1.66027 2.26278 2.30483 1.94987 3.08341 1.73291C3.84168 1.52161 4.8134 1.37974 6.01622 1.20238L6.23503 2.68634ZM0.250861 7.88018C0.250861 6.66435 0.249471 5.68232 0.347901 4.90134C0.448969 4.09944 0.66451 3.41614 1.16239 2.83946L2.29778 3.81971C2.06644 4.08767 1.91737 4.44434 1.83613 5.08891C1.75225 5.75441 1.75086 6.62537 1.75086 7.88018H0.250861ZM8.10539 0.894336C9.02303 0.759031 9.78085 0.645884 10.3891 0.632724C11.0131 0.619222 11.5967 0.705437 12.1097 1.06532L11.2482 2.29325C11.1089 2.19554 10.8979 2.12207 10.4215 2.13237C9.92933 2.14302 9.28118 2.23718 8.32419 2.37829L8.10539 0.894336ZM11.7803 5.36214C11.7803 4.39481 11.7789 3.73986 11.7176 3.2514C11.6583 2.77863 11.5549 2.58053 11.4379 2.45701L12.527 1.4256C12.9579 1.88057 13.1283 2.44544 13.206 3.06474C13.2817 3.66836 13.2803 4.43458 13.2803 5.36214H11.7803ZM12.1097 1.06532C12.2605 1.17113 12.4003 1.29183 12.527 1.4256L11.4379 2.45701C11.3803 2.39621 11.3167 2.34135 11.2482 2.29325L12.1097 1.06532Z" fill="#B8C0D8"/>
<path d="M8.33333 6L5 9.5M5 9.5L8.33333 13M5 9.5H15" stroke="#B8C0D8" stroke-width="1.5" stroke-linecap="round" stroke-linejoin="round"/>
</svg>
