<svg width="47" height="47" viewBox="0 0 47 47" fill="none" xmlns="http://www.w3.org/2000/svg">
<ellipse cx="23.36" cy="23.3243" rx="23.36" ry="23.3243" fill="#EBF3FF"/>
<path fill-rule="evenodd" clip-rule="evenodd" d="M16.5953 33.8211C26.0478 29.4694 39.2266 37.9781 39.2266 37.9781V39.5335C33.2567 46.6494 19.399 49.812 10.4461 42.7551C11.0607 40.1326 11.6363 38.3577 12.1407 37.8027C12.1918 37.7466 12.2436 37.6894 12.2963 37.6314C13.5131 36.2908 15.1516 34.4854 16.5953 33.8211Z" fill="url(#paint0_linear_132_623)"/>
<path fill-rule="evenodd" clip-rule="evenodd" d="M5.7748 38.6738C10.2156 35.9094 15.8457 33.6055 15.8457 33.6055L14.2527 45.0684C9.89745 43.4871 6.75308 39.8829 5.7748 38.6738Z" fill="url(#paint1_linear_132_623)"/>
<path d="M18.6142 37.7688C21.5267 38.3391 25.8052 37.7312 28.9375 35.6695C27.8538 33.1953 27.1136 30.585 26.7372 27.9108C26.7253 27.8191 26.7163 27.7304 26.7073 27.6444C26.6284 27.0553 26.6163 26.4591 26.6711 25.8672H19.1413C19.1413 25.8672 17.0827 26.8071 17.0827 27.4564C17.0827 27.8041 17.0797 28.1365 17.0736 28.4534C17.0585 29.3181 17.0239 30.073 16.9787 30.7212C16.9292 31.7639 16.8003 32.8015 16.5932 33.8247C16.5932 33.8247 15.6732 37.1927 18.6142 37.7688Z" fill="#FFDAC3"/>
<path d="M16.9773 30.7199C22.6818 31.8206 25.9935 28.7078 26.7358 27.9096C26.8413 27.7952 26.8955 27.7277 26.8955 27.7277C26.8354 27.6973 26.772 27.6705 26.7058 27.6432C24.5824 26.7848 19.7634 27.4675 17.0722 28.4522C17.0571 29.3169 17.0225 30.0718 16.9773 30.7199Z" fill="#F7C09B"/>
<path d="M28.6008 24.6304C27.5814 30.1084 20.5023 29.9284 17.443 29.5841C16.582 29.4886 16.0403 29.3788 16.0403 29.3788C15.0696 29.1198 14.528 27.5931 14.2762 25.5933C13.7768 21.6358 14.4079 15.826 15.0772 14.3403C16.085 12.1044 17.9832 9.68623 25.1123 11.4308C32.2426 13.177 29.9087 17.6116 28.6008 24.6304Z" fill="#FFDAC3"/>
<path d="M14.8137 11.2824C15.788 9.93554 17.8539 8.28972 19.7304 7.27618C23.7616 5.09865 28.9208 7.34472 28.9423 7.35411C34.7654 9.91043 36.2859 14.3588 33.1987 21.288C29.9342 28.6154 26.8259 27.791 26.8259 27.791C26.8259 27.791 27.4856 27.3811 27.426 25.0973C27.4226 24.9676 27.4174 24.859 27.4114 24.7657C27.3925 24.5343 27.4264 24.3017 27.5105 24.0853C27.5947 23.8688 27.7268 23.6743 27.8971 23.5162C28.6203 22.8718 28.9729 20.9222 28.3671 20.3796C27.6365 19.7249 26.6099 20.52 26.2818 21.1318C26.2194 21.2374 26.136 21.329 26.0366 21.401C25.9373 21.4729 25.8241 21.5237 25.7043 21.5501C25.5844 21.5766 25.4604 21.5781 25.3399 21.5545C25.2194 21.531 25.1051 21.483 25.004 21.4135C23.1915 20.2694 24.3688 17.9814 22.6371 16.5814C20.9052 15.1817 17.391 16.3569 14.7931 15.2414C11.3923 13.9761 14.0793 12.2975 14.8137 11.2824Z" fill="url(#paint2_linear_132_623)"/>
<path fill-rule="evenodd" clip-rule="evenodd" d="M37.105 35.3226C38.515 35.887 40.6911 36.8117 41.4092 38.1423C41.4092 38.1423 35.634 46.2538 23.7561 46.6492C24.4975 44.0345 25.4079 39.0294 26.1885 37.0287C26.9022 35.2046 27.5845 33.9056 28.1522 33.6273H28.1537C28.1537 33.6273 29.6662 33.2042 31.0939 33.9126C32.9492 34.2094 36.7339 35.1741 37.105 35.3226Z" fill="url(#paint3_linear_132_623)"/>
<path fill-rule="evenodd" clip-rule="evenodd" d="M31.1396 33.9423C29.985 32.2882 27.5837 31.8691 27.5837 31.8691C26.2092 33.0619 24.4046 41.9124 23.3602 46.6484H23.7561C26.277 42.1479 31.1396 33.9423 31.1396 33.9423Z" fill="white"/>
<path fill-rule="evenodd" clip-rule="evenodd" d="M14.3223 34.6771C14.6499 33.8551 16.1039 32.3676 16.8623 32.082C16.8439 32.6709 16.7545 33.2554 16.5959 33.8228C15.9168 36.4616 14.9906 41.8929 14.2532 45.0692L14.3223 34.6771Z" fill="white"/>
<defs>
<linearGradient id="paint0_linear_132_623" x1="14.7672" y1="42.0754" x2="23.9693" y2="43.9307" gradientUnits="userSpaceOnUse">
<stop stop-color="#4498E8"/>
<stop offset="1" stop-color="#5BB2FB"/>
</linearGradient>
<linearGradient id="paint1_linear_132_623" x1="10.8102" y1="33.6055" x2="10.8102" y2="45.0684" gradientUnits="userSpaceOnUse">
<stop stop-color="#CFE6E6"/>
<stop offset="1" stop-color="white"/>
</linearGradient>
<linearGradient id="paint2_linear_132_623" x1="18.7012" y1="8.83121" x2="30.2029" y2="26.7897" gradientUnits="userSpaceOnUse">
<stop stop-color="#626262"/>
<stop offset="1" stop-color="#333333"/>
</linearGradient>
<linearGradient id="paint3_linear_132_623" x1="32.5826" y1="33.502" x2="32.5826" y2="46.6492" gradientUnits="userSpaceOnUse">
<stop stop-color="#CFE6E6"/>
<stop offset="1" stop-color="white"/>
</linearGradient>
</defs>
</svg>
