<svg width="17" height="18" viewBox="0 0 17 18" fill="none" xmlns="http://www.w3.org/2000/svg">
<path d="M15.6511 7.19922H5.75732C5.01729 7.19922 4.41016 7.80183 4.41016 8.54523V16.6533C4.41016 17.3955 5.01329 17.9993 5.75732 17.9993H15.6512C16.3911 17.9993 16.9983 17.3967 16.9983 16.6533V8.54523C16.9983 7.80301 16.3951 7.19922 15.6511 7.19922ZM15.2 16.1993H6.20847V8.99921H15.2V16.1993Z" fill="#B8C0D8"/>
<path d="M4.33742 0H4.65345C7.04807 0 8.99121 1.9479 8.99121 4.34443V7.78886H7.19289V4.34443C7.19289 2.94143 6.05431 1.80003 4.65345 1.80003H4.33742C2.93732 1.80003 1.79798 2.94067 1.79798 4.34502V5.40005H-0.000337601V4.34498C-0.000337601 1.94659 1.94406 0 4.33742 0Z" fill="#B8C0D8"/>
</svg>
