<svg width="32" height="32" viewBox="0 0 32 32" fill="none" xmlns="http://www.w3.org/2000/svg">
<path d="M32 16C32 24.8375 24.8375 32 16 32C7.1625 32 0 24.8375 0 16C0 7.1625 7.1625 0 16 0C24.8375 0 32 7.1625 32 16Z" fill="#A6CE39"/>
<path d="M10.7893 23.2752H8.86426V9.8877H10.7893V15.9377V23.2752Z" fill="white"/>
<path d="M13.6143 9.8877H18.8143C23.7643 9.8877 25.9393 13.4252 25.9393 16.5877C25.9393 20.0252 23.2518 23.2877 18.8393 23.2877H13.6143V9.8877ZM15.5393 21.5502H18.6018C22.9643 21.5502 23.9643 18.2377 23.9643 16.5877C23.9643 13.9002 22.2518 11.6252 18.5018 11.6252H15.5393V21.5502Z" fill="white"/>
<path d="M11.0885 7.10039C11.0885 7.78789 10.526 8.36289 9.82598 8.36289C9.12598 8.36289 8.56348 7.78789 8.56348 7.10039C8.56348 6.40039 9.12598 5.83789 9.82598 5.83789C10.526 5.83789 11.0885 6.41289 11.0885 7.10039Z" fill="white"/>
</svg>
