<svg width="12" height="8" viewBox="0 0 12 8" fill="none" xmlns="http://www.w3.org/2000/svg">
<path d="M11.8879 3.84155C10.3229 1.72803 8.23125 0.5625 6 0.5625C3.76875 0.5625 1.67711 1.72803 0.112052 3.84155C-0.0373508 4.04297 -0.0373508 4.33032 0.112052 4.53174C1.67711 6.64795 3.76875 7.81348 6 7.81348C8.23125 7.81348 10.3229 6.64795 11.8879 4.53442C12.0374 4.33301 12.0374 4.04297 11.8879 3.84155ZM6 5.98462C5.09623 5.98462 4.36147 5.17896 4.36147 4.18799C4.36147 3.19702 5.09623 2.39136 6 2.39136C6.90377 2.39136 7.63854 3.19702 7.63854 4.18799C7.63854 5.17896 6.90377 5.98462 6 5.98462ZM1.15542 4.18799C2.08123 3.05469 3.18584 2.27856 4.37616 1.90796C3.75896 2.43701 3.35973 3.26147 3.35973 4.18799C3.35973 5.11182 3.75651 5.93628 4.37616 6.46802C3.18584 6.09741 2.08368 5.32129 1.15542 4.18799ZM7.62384 6.46802C8.24104 5.93896 8.64027 5.1145 8.64027 4.18799C8.64027 3.26416 8.24349 2.4397 7.62384 1.90796C8.81417 2.27856 9.91877 3.05469 10.8446 4.18799C9.91632 5.32129 8.81417 6.09741 7.62384 6.46802Z" fill="#BDBDBD"/>
</svg>
