<svg width="161" height="161" viewBox="0 0 161 161" fill="none" xmlns="http://www.w3.org/2000/svg">
<ellipse cx="80.5" cy="80.3772" rx="80.5" ry="80.3772" fill="#EBF3FF"/>
<path fill-rule="evenodd" clip-rule="evenodd" d="M57.1946 116.548C89.7688 101.552 135.184 130.874 135.184 130.874V136.233C114.611 160.755 66.8567 171.654 36.0042 147.335C38.1222 138.298 40.1056 132.182 41.8441 130.269C42.0199 130.076 42.1986 129.879 42.38 129.679C46.5731 125.059 52.2198 118.838 57.1946 116.548Z" fill="url(#paint0_linear_99_276)"/>
<path fill-rule="evenodd" clip-rule="evenodd" d="M19.9122 133.272C35.2155 123.745 54.6172 115.806 54.6172 115.806L49.1276 155.308C34.1191 149.858 23.2834 137.438 19.9122 133.272Z" fill="url(#paint1_linear_99_276)"/>
<path d="M64.1605 130.144C74.1971 132.109 88.9411 130.014 99.7354 122.909C96.0009 114.383 93.45 105.388 92.1531 96.1722C92.112 95.8562 92.081 95.5507 92.0498 95.2544C91.778 93.2241 91.7363 91.1696 91.9253 89.1299H65.9771C65.9771 89.1299 58.8829 92.3688 58.8829 94.6064C58.8829 95.8046 58.8725 96.9499 58.8517 98.0423C58.7995 101.022 58.6803 103.623 58.5246 105.857C58.354 109.451 57.9099 113.026 57.1961 116.552C57.1961 116.552 54.0258 128.158 64.1605 130.144Z" fill="#FFDAC3"/>
<path d="M58.5185 105.855C78.1765 109.648 89.5887 98.9213 92.147 96.1705C92.5105 95.7763 92.6973 95.5436 92.6973 95.5436C92.49 95.4391 92.2715 95.3467 92.0437 95.2527C84.7263 92.2943 68.1194 94.6471 58.8456 98.0405C58.7934 101.02 58.6742 103.622 58.5185 105.855Z" fill="#F7C09B"/>
<path d="M98.5742 84.8704C95.0614 103.748 70.6663 103.128 60.1236 101.941C57.1567 101.612 55.2898 101.234 55.2898 101.234C51.9447 100.341 50.0784 95.0802 49.2108 88.1886C47.4896 74.5509 49.6645 54.5301 51.9712 49.4101C55.444 41.7051 61.9853 33.3719 86.5527 39.384C111.124 45.4014 103.081 60.6831 98.5742 84.8704Z" fill="#FFDAC3"/>
<path d="M51.0555 38.8764C54.4132 34.235 61.5325 28.5634 67.9989 25.0707C81.8906 17.5668 99.6698 25.3068 99.7438 25.3392C119.811 34.1485 125.05 49.4777 114.412 73.3562C103.162 98.6068 92.4503 95.7661 92.4503 95.7661C92.4503 95.7661 94.7239 94.3536 94.5186 86.4834C94.5067 86.0364 94.4888 85.6621 94.4683 85.3407C94.4032 84.5433 94.52 83.7417 94.8098 82.9959C95.0997 82.2501 95.5551 81.5796 96.1419 81.0348C98.634 78.8142 99.8492 72.0959 97.7617 70.2258C95.2438 67.9696 91.706 70.7099 90.5755 72.818C90.3606 73.1818 90.073 73.4976 89.7306 73.7456C89.3882 73.9936 88.9983 74.1686 88.5853 74.2596C88.1722 74.3507 87.7448 74.3559 87.3296 74.2748C86.9144 74.1938 86.5204 74.0284 86.1721 73.7887C79.9263 69.8463 83.9833 61.9615 78.0156 57.137C72.0473 52.3137 59.9371 56.3633 50.9846 52.5194C39.2652 48.1591 48.525 42.3744 51.0555 38.8764Z" fill="url(#paint2_linear_99_276)"/>
<path fill-rule="evenodd" clip-rule="evenodd" d="M127.87 121.721C132.729 123.666 140.229 126.853 142.703 131.438C142.703 131.438 122.802 159.391 81.8693 160.753C84.4244 151.743 87.5616 134.495 90.2517 127.601C92.7113 121.315 95.0623 116.838 97.0187 115.879H97.024C97.024 115.879 102.236 114.421 107.156 116.863C113.549 117.885 126.592 121.209 127.87 121.721Z" fill="url(#paint3_linear_99_276)"/>
<path fill-rule="evenodd" clip-rule="evenodd" d="M107.316 116.967C103.338 111.267 95.0625 109.823 95.0625 109.823C90.3258 113.934 84.1069 144.433 80.5079 160.753H81.8724C90.5595 145.245 107.316 116.967 107.316 116.967Z" fill="white"/>
<path fill-rule="evenodd" clip-rule="evenodd" d="M49.3562 119.496C50.4854 116.663 55.496 111.537 58.1094 110.553C58.0459 112.582 57.7377 114.596 57.1914 116.552C54.8512 125.645 51.6592 144.362 49.1181 155.307L49.3562 119.496Z" fill="white"/>
<defs>
<linearGradient id="paint0_linear_99_276" x1="50.8949" y1="144.993" x2="82.6059" y2="151.387" gradientUnits="userSpaceOnUse">
<stop stop-color="#4498E8"/>
<stop offset="1" stop-color="#5BB2FB"/>
</linearGradient>
<linearGradient id="paint1_linear_99_276" x1="37.2647" y1="115.806" x2="37.2647" y2="155.308" gradientUnits="userSpaceOnUse">
<stop stop-color="#CFE6E6"/>
<stop offset="1" stop-color="white"/>
</linearGradient>
<linearGradient id="paint2_linear_99_276" x1="64.4522" y1="30.4294" x2="104.088" y2="92.3157" gradientUnits="userSpaceOnUse">
<stop stop-color="#626262"/>
<stop offset="1" stop-color="#333333"/>
</linearGradient>
<linearGradient id="paint3_linear_99_276" x1="112.286" y1="115.447" x2="112.286" y2="160.753" gradientUnits="userSpaceOnUse">
<stop stop-color="#CFE6E6"/>
<stop offset="1" stop-color="white"/>
</linearGradient>
</defs>
</svg>
