<svg width="20" height="20" viewBox="0 0 20 20" fill="none" xmlns="http://www.w3.org/2000/svg">
<mask id="mask0_3317_20" style="mask-type:alpha" maskUnits="userSpaceOnUse" x="0" y="0" width="20" height="20">
<rect width="20" height="20" fill="white"/>
</mask>
<g mask="url(#mask0_3317_20)">
<path fill-rule="evenodd" clip-rule="evenodd" d="M4.58366 12.5013C5.34199 12.5013 6.02783 12.203 6.54783 11.7263L11.7645 14.7071C11.707 14.9363 11.667 15.1713 11.667 15.418C11.667 17.0263 12.9753 18.3346 14.5837 18.3346C16.192 18.3346 17.5003 17.0263 17.5003 15.418C17.5003 13.8096 16.192 12.5013 14.5837 12.5013C13.8253 12.5013 13.1395 12.7996 12.6195 13.2763L7.40283 10.2955C7.45533 10.0896 7.48866 9.87714 7.49283 9.65547L12.6187 6.7263C13.1395 7.20297 13.8253 7.5013 14.5837 7.5013C16.192 7.5013 17.5003 6.19297 17.5003 4.58464C17.5003 2.9763 16.192 1.66797 14.5837 1.66797C12.9753 1.66797 11.667 2.9763 11.667 4.58464C11.667 4.8313 11.707 5.0663 11.7645 5.29547L7.02782 8.00297C6.50699 7.2013 5.60783 6.66797 4.58366 6.66797C2.97533 6.66797 1.66699 7.9763 1.66699 9.58464C1.66699 11.193 2.97533 12.5013 4.58366 12.5013C4.58366 12.5013 5.34199 12.5013 4.58366 12.5013Z" fill="#D7D7D7"/>
</g>
</svg>
