<svg width="20" height="20" viewBox="0 0 20 20" fill="none" xmlns="http://www.w3.org/2000/svg">
<mask id="mask0_3317_298" style="mask-type:alpha" maskUnits="userSpaceOnUse" x="0" y="0" width="20" height="20">
<rect width="20" height="20" fill="white"/>
</mask>
<g mask="url(#mask0_3317_298)">
<path fill-rule="evenodd" clip-rule="evenodd" d="M10.0003 4.16667C9.71735 3.8407 9.38745 3.55607 9.0235 3.31867C8.21922 2.79403 7.2486 2.5 6.25033 2.5C3.68366 2.5 1.66699 4.4782 1.66699 6.99591C1.66699 7.8905 1.88011 8.74001 2.24518 9.5482C3.37749 12.0572 5.97179 14.1744 8.20491 15.9969C8.84782 16.5216 9.46079 17.0219 10.0003 17.5C10.5399 17.0219 11.1528 16.5216 11.7957 15.9969C14.0288 14.1744 16.6231 12.0572 17.7554 9.54834C18.1205 8.74011 18.3337 7.89055 18.3337 6.99591C18.3337 4.4782 16.317 2.5 13.7503 2.5C12.7521 2.5 11.7814 2.79403 10.9771 3.31867C10.6132 3.55607 10.2833 3.8407 10.0003 4.16667C10.0003 4.16667 9.71735 3.8407 10.0003 4.16667ZM10.0003 15.3083C10.2693 15.0853 10.5443 14.8605 10.8188 14.6361C11.0513 14.4459 11.2836 14.2561 11.5116 14.0678C12.4245 13.3141 13.3181 12.5483 14.1094 11.7459C15.0886 10.7528 15.8164 9.79694 16.2402 8.85349C16.5197 8.23058 16.667 7.61361 16.667 6.99591C16.667 5.42879 15.4269 4.16667 13.7503 4.16667C12.76 4.16667 11.8358 4.59477 11.2589 5.25926L10.0003 6.70903L8.74175 5.25926C8.16489 4.59477 7.24068 4.16667 6.25033 4.16667C4.57373 4.16667 3.33366 5.42879 3.33366 6.99591C3.33366 7.61361 3.48094 8.23059 3.76044 8.85349C4.18424 9.79694 4.91201 10.7528 5.89124 11.7459C6.68252 12.5483 7.57612 13.3141 8.48902 14.0678C8.71706 14.2561 8.9493 14.4459 9.18185 14.6361C9.45638 14.8605 9.73134 15.0853 10.0003 15.3083C10.0003 15.3083 10.2693 15.0853 10.0003 15.3083Z" fill="#D7D7D7"/>
</g>
</svg>
