<svg width="37" height="44" viewBox="0 0 37 44" fill="none" xmlns="http://www.w3.org/2000/svg">
<path d="M0.640703 42.14L15.2207 26.66C17.7007 24.02 19.5207 21.82 20.6807 20.06C21.8407 18.3 22.4207 16.58 22.4207 14.9C22.4207 13.62 22.0807 12.6 21.4007 11.84C20.7607 11.04 19.8007 10.64 18.5207 10.64C17.0807 10.64 15.9607 11.14 15.1607 12.14C14.3607 13.14 13.8207 14.8 13.5407 17.12H1.3007C1.5007 11.6 3.1407 7.44 6.2207 4.64C9.3407 1.84 13.6607 0.439999 19.1807 0.439999C24.5007 0.439999 28.6007 1.72 31.4807 4.28C34.3607 6.84 35.8007 10.18 35.8007 14.3C35.8007 17.1 35.1207 19.66 33.7607 21.98C32.4407 24.3 30.4607 26.7 27.8207 29.18L22.9007 33.92H36.1607V44H0.640703V42.14Z" fill="#E3F3FF"/>
</svg>
