<svg width="37" height="45" viewBox="0 0 37 45" fill="none" xmlns="http://www.w3.org/2000/svg">
<path d="M19.146 44.78C7.30602 44.78 1.16602 39.72 0.726016 29.6H12.786C12.946 31.4 13.446 32.76 14.286 33.68C15.126 34.6 16.466 35.06 18.306 35.06C21.546 35.06 23.166 33.62 23.166 30.74C23.166 27.82 21.486 26.36 18.126 26.36H14.706V18.14H17.946C21.426 18.14 23.166 16.7 23.166 13.82C23.166 12.66 22.786 11.76 22.026 11.12C21.306 10.44 20.246 10.1 18.846 10.1C15.966 10.1 14.286 11.78 13.806 15.14H1.80602C2.16602 10.58 3.78602 7 6.66602 4.4C9.58602 1.76 13.766 0.439999 19.206 0.439999C24.446 0.439999 28.526 1.5 31.446 3.62C34.406 5.7 35.886 8.6 35.886 12.32C35.886 17 33.426 20.08 28.506 21.56C31.066 22 33.106 23.08 34.626 24.8C36.146 26.48 36.906 28.58 36.906 31.1C36.906 35.3 35.366 38.64 32.286 41.12C29.246 43.56 24.866 44.78 19.146 44.78Z" fill="#E3F3FF"/>
</svg>
