<svg width="28" height="29" viewBox="0 0 28 29" fill="none" xmlns="http://www.w3.org/2000/svg">
<path d="M14.4585 2.81866V9.91889C13.4921 9.91889 13.2774 11.7477 14.6732 11.7477C16.122 11.7477 15.8543 9.91889 14.888 9.91889V2.81866L19.3976 11.425C19.054 13.5766 14.888 19.601 12.7405 21.5374V17.6646L10.0562 11.425L14.4585 2.81866Z" fill="#007EEA"/>
<path d="M17.3575 25.9482L16.3912 18.3101C15.3604 20.7198 13.0268 23.5456 11.9889 24.4421V25.9482C3.22725 23.5384 2.68323 15.4771 3.50643 11.7477C4.50967 7.96472 8.12347 5.83088 9.51932 5.07783C10.9152 4.32477 12.311 3.89446 12.0963 2.28077C11.9245 0.989822 10.593 0.64557 9.73406 0.989822C0.972421 4.26023 -0.359005 12.2498 0.0704873 15.8357C0.0704873 20.5692 4.90227 28.4225 14.6732 28.4225C18.9681 28.4225 27.558 25.3242 27.558 14.6524C27.558 5.18541 18.1092 2.13733 15.3175 2.17319V1.95803L14.888 1.95803V2.28077V2.60351L15.3175 2.60351V2.38835L15.4248 2.38835C20.4714 2.28077 26.1621 7.98246 26.1621 14.6524C26.1621 20.5692 22.2967 25.1951 17.3575 25.9482Z" fill="#007EEA"/>
</svg>
